<?xml version="1.0" encoding="utf-8"?>
<!-- Generator: Adobe Illustrator 26.3.1, SVG Export Plug-In . SVG Version: 6.00 Build 0)  -->
<svg version="1.1" id="a" xmlns="http://www.w3.org/2000/svg" xmlns:xlink="http://www.w3.org/1999/xlink" x="0px" y="0px"
	 viewBox="0 0 13.8 11.2" style="enable-background:new 0 0 13.8 11.2;" xml:space="preserve">
<style type="text/css">
	.st0{enable-background:new    ;}
	.st1{fill:#6FCFEB;}
</style>
<g class="st0">
	<path class="st1" d="M4.2,5.6c0,1.3,0.1,3.7,0.8,4.2c0.2,0.1,0.2,0.5-0.2,0.5H1.1c-0.4,0-0.4-0.3-0.2-0.5c0.7-0.5,0.8-2.9,0.8-4.2
		S1.6,1.9,0.9,1.4C0.7,1.2,0.7,0.9,1.1,0.9h3.7c0.4,0,0.4,0.3,0.2,0.4C4.3,1.9,4.2,4.3,4.2,5.6z"/>
</g>
<g class="st0">
	<path class="st1" d="M13.2,10.3H8.8c-2,0-3.7-1.5-3.7-3.4s1.6-3.4,3.7-3.4c0.4,0,0.8,0.1,1.1,0.2c-0.1-0.5-0.3-0.8-0.6-1
		C9.1,2.5,9.2,2.3,9.4,2.3c1.8,0,2.6-1.2,3.3-1.3c0.4-0.1,0.2,0.2,0.2,0.5c-0.3,1.4-0.3,2-0.3,3.2v3.8c0,0.7,0.1,1.1,0.8,1.6
		C13.5,10,13.4,10.3,13.2,10.3z M8.8,9.8c0.6,0,1-1.3,1-2.9S9.3,4,8.8,4C8.2,4,7.7,5.3,7.7,6.9S8.2,9.8,8.8,9.8z"/>
</g>
</svg>
