<?xml version="1.0" encoding="utf-8"?>
<!-- Generator: Adobe Illustrator 26.3.1, SVG Export Plug-In . SVG Version: 6.00 Build 0)  -->
<svg version="1.1" id="a" xmlns="http://www.w3.org/2000/svg" xmlns:xlink="http://www.w3.org/1999/xlink" x="0px" y="0px"
	 viewBox="0 0 92.3 38.8" style="enable-background:new 0 0 92.3 38.8;" xml:space="preserve">
<style type="text/css">
	.st0{enable-background:new    ;}
	.st1{fill:#FFFFFF;}
</style>
<g class="st0">
	<path class="st1" d="M6.8,17.8c0,2.5,0.1,7.3,1.5,8.3c0.4,0.3,0.4,0.9-0.4,0.9H0.6c-0.8,0-0.7-0.6-0.4-0.9c1.3-1,1.5-5.8,1.5-8.3
		c0-2.5-0.1-7.2-1.5-8.3c-0.4-0.3-0.4-0.9,0.4-0.9h7.3c0.8,0,0.7,0.6,0.4,0.9C6.9,10.5,6.8,15.2,6.8,17.8z"/>
</g>
<g class="st0">
	<path class="st1" d="M24.4,26.9h-8.6c-4,0-7.2-3-7.2-6.7c0-3.7,3.2-6.7,7.2-6.7c0.8,0,1.5,0.1,2.2,0.3c-0.2-0.9-0.6-1.6-1.1-2
		c-0.4-0.3-0.3-0.7,0.1-0.7c3.5,0,5-2.4,6.4-2.6c0.8-0.2,0.4,0.4,0.4,0.9c-0.5,2.7-0.7,3.9-0.7,6.2v7.4c0,1.3,0.3,2.1,1.5,3.1
		C24.9,26.5,24.7,26.9,24.4,26.9z M15.7,25.9c1.1,0,2.1-2.6,2.1-5.7c0-3.1-0.9-5.7-2.1-5.7c-1.2,0-2.1,2.5-2.1,5.7
		C13.6,23.4,14.6,25.9,15.7,25.9z"/>
</g>
<g class="st0">
	<path class="st1" d="M38.4,23.3c-1.2,2.1-3.6,3.6-6.4,3.6c-4,0-7.2-3-7.2-6.7c0-3.7,3.2-6.7,7.5-6.7c2.8,0,5.8,1.9,5.8,4.3
		c0,2.3-2.3,4.2-5.1,4.2c-0.9,0-1.8-0.2-2.5-0.5c0.4,1.2,1.2,2.2,2.6,2.6c1.3,0.4,3.5-0.1,4.5-1.4C38,22.3,38.6,22.9,38.4,23.3z
		 M30.3,18.1c0,1.9,0.9,3.1,1.8,3.1c1,0,1.7-1.5,1.7-3.2c0-1.8-0.7-3.3-1.7-3.3C31.5,14.6,30.3,15.7,30.3,18.1z"/>
	<path class="st1" d="M53.5,26.9h-3.7c-1.9,0-2.7-1.7-2.7-1.7c-0.8,1-2.1,1.7-3.5,1.7c-2.4,0-4.4-1.9-4.4-4.2s2-4.2,4.4-4.2
		c1.4,0,2.7,0.7,3.5,1.7v-1.1c0-2.1-0.8-4.5-2.1-4.5c-0.5,0-0.5,0.9-0.1,1.8c0.8,1.8-4.6,2.5-4.6,0.4c0-1.5,1.8-3.2,5.1-3.2
		c3.9,0,6.8,2.7,6.8,6.6v3c0,1.3,0.2,2.1,1.5,3.1C54,26.5,53.8,26.9,53.5,26.9z M46.9,22.7c0-1.3-0.8-2.3-1.8-2.3
		c-1,0-1.8,1-1.8,2.3s0.8,2.3,1.8,2.3C46.1,25,46.9,24,46.9,22.7z"/>
	<path class="st1" d="M62.1,26.9H55c-0.4,0-0.5-0.5-0.1-0.8c1.3-0.9,1.5-1.7,1.5-3.1V15c0-1.3-0.2-2.1-1.5-3.1
		c-0.4-0.3-0.2-0.7,0.1-0.7c3.5,0,5-2.4,6.4-2.6c0.8-0.2,0.4,0.4,0.4,0.9C60.4,16.4,61.2,25,62.5,26C62.9,26.3,62.9,26.9,62.1,26.9z
		"/>
</g>
<g class="st0">
	<path class="st1" d="M70.8,26.9h-7.1c-0.4,0-0.5-0.5-0.1-0.8c1.3-0.9,1.5-1.7,1.5-3.1V15c0-1.3-0.2-2.1-1.5-3.1
		c-0.4-0.3-0.2-0.7,0.1-0.7c3.5,0,5-2.4,6.4-2.6c0.8-0.2,0.4,0.4,0.4,0.9C69.2,16.4,69.9,25,71.2,26C71.6,26.3,71.6,26.9,70.8,26.9z
		"/>
</g>
<g class="st0">
	<path class="st1" d="M86.8,14.4c-1.3,0.7-1.6,1.7-2.1,3.1l-2.2,7l-1.5,5c-1.8,5.3-4.4,6.6-6.4,6.6c-3.9,0-5.5-3.9-3.8-6.1
		c2-2.6,6.2-1.7,5.5,1.2c-0.7,3.1,2.2,2.6,4.1-3l0.4-1.2h-2.3c-1.4,0-1.7-0.5-2.1-1.8l-1.4-4.4c-1.3-4.3-2.2-5.6-3.2-6.2
		c-0.5-0.3-0.7-0.9,0.1-0.9h7.8c0.4,0,0.5,0.4,0.4,0.8c-1.8,4,1.2,9.5,1.3,9.9l0.1,0.1l0.1-0.3c0,0,2.2-8,0.7-9.6
		c-0.3-0.3-0.1-0.8,0.4-0.8h4.2C87.3,13.6,87.3,14.1,86.8,14.4z"/>
</g>
</svg>
