<?xml version="1.0" encoding="utf-8"?>
<!-- Generator: Adobe Illustrator 26.2.1, SVG Export Plug-In . SVG Version: 6.00 Build 0)  -->
<svg version="1.1" id="a" xmlns="http://www.w3.org/2000/svg" xmlns:xlink="http://www.w3.org/1999/xlink" x="0px" y="0px"
	 viewBox="0 0 100.3 33.4" style="enable-background:new 0 0 100.3 33.4;" xml:space="preserve">
<style type="text/css">
	.st0{fill:#FFFFFF;}
</style>
<path class="st0" d="M15.1,4c0.1,0.1,0.1,0.1,0.1,0.2c0,0.1,0,0.1,0,0.2c0,0.2,0,0.3,0,0.4l0,0.4c0,0.1,0,0.1,0,0.2
	c0,0.1,0,0.1,0,0.2c0,0.1,0,0.1,0,0.1c0,0,0,0.1,0,0.1c0,0.1,0,0.2,0,0.4c0,0.1,0,0.1,0,0.1c0,0,0,0.1,0,0.1c-0.2,0.5-0.4,1-0.8,1.5
	c-0.1,0.2-0.3,0.5-0.5,0.6s-0.4,0.4-0.6,0.6C13.1,9.1,13,9.2,13,9.2c-0.1,0-0.1,0.1-0.3,0.2c-0.1,0.1-0.1,0.1-0.2,0.2
	s-0.1,0.1-0.1,0.2L12.1,10c-0.1,0.1-0.2,0.1-0.2,0.2s-0.1,0.1-0.2,0.1h-0.1c0,0-0.1,0-0.1,0c-0.1,0.1-0.1,0.1-0.2,0.2
	c-0.1,0-0.2,0.1-0.2,0.1c0,0-0.1,0.1-0.1,0.1c0,0,0,0.1-0.1,0.1c0,0.1,0,0.1-0.1,0.1l-0.1,0c0,0,0.1,0,0.1,0.1
	c0.1,0,0.1,0.1,0.2,0.1c0.1,0.1,0.1,0.1,0.2,0.1c0.1,0,0.1,0.1,0.2,0.1c0.1,0,0.1,0.1,0.1,0.1s0,0.1,0.1,0.1c0,0.1,0,0.1,0.1,0.1
	c0,0,0,0.1,0.1,0.1l0.1,0.1l0,0.1c0.1,0.1,0.2,0.2,0.4,0.5c0.1,0.2,0.3,0.4,0.4,0.7c0.1,0.1,0.1,0.3,0.1,0.4c0,0.1,0,0.3,0.1,0.4
	v0.3c0,0,0,0,0,0l0,0.2l0.1,0.1c0,0.1,0.1,0.1,0.1,0.2c0,0.1,0,0.1,0,0.3c0,0.2,0,0.4,0,0.7C13,16,13,16.1,13,16.1
	c0.1-0.2,0.1-0.4,0.1-0.4c0,0,0,0,0,0.1v0.3c0,0.1,0,0.2,0.1,0.2c-0.1,0.1-0.2,0.3-0.2,0.5c0,0.2-0.1,0.3-0.2,0.5l-0.1,0.2l-0.1,0.1
	l0,0.3c-0.1,0.1-0.1,0.2-0.1,0.3c0,0.1-0.1,0.2-0.1,0.3c-0.1,0.1-0.1,0.1,0,0.2c0,0.1,0,0.2-0.1,0.3c0,0.1-0.1,0.1-0.1,0.2
	c-0.1,0.1-0.1,0.2-0.3,0.3l-0.1,0.3c-0.1,0.1-0.1,0.2-0.2,0.3c-0.1,0.1-0.1,0.2-0.2,0.3c-0.2,0.1-0.3,0.2-0.3,0.3c0,0,0,0.1-0.1,0.2
	c-0.1,0.1-0.2,0.3-0.3,0.4c-0.1,0.2-0.2,0.3-0.3,0.4c-0.1,0.1-0.1,0.2-0.2,0.2C9.9,22,9.9,22,9.9,22c0,0-0.1,0.1-0.1,0.1l-0.2,0.1
	l-0.1,0.1c-0.1,0.1-0.1,0.1-0.2,0.2c-0.1,0.1-0.1,0.1-0.2,0.2c-0.1,0.2-0.2,0.3-0.3,0.4c-0.2,0.1-0.4,0.2-0.4,0.4
	c-0.1,0.1-0.3,0.2-0.4,0.3c0,0-0.1,0-0.1,0l-0.1,0c-0.1,0.1-0.1,0.2-0.2,0.2c-0.1,0-0.2,0.1-0.3,0.1c0,0.1-0.1,0.1-0.1,0.1
	c0,0,0,0.1-0.1,0.1c0,0,0,0-0.1,0l0,0.1c-0.1,0.1-0.3,0.2-0.6,0.3c-0.1,0-0.2,0.1-0.3,0.1S5.8,25,5.7,25.1l-0.1,0
	c-0.2,0.1-0.3,0.2-0.5,0.3c-0.2,0.1-0.3,0.1-0.6,0.2l-0.3,0.1c-0.1,0.1-0.2,0.1-0.3,0.2C3.8,25.9,3.7,26,3.7,26s-0.1,0-0.1-0.1
	c-0.2-0.1-0.2-0.2,0-0.4c0-0.1,0.1-0.1,0.2-0.2c0.1-0.1,0.2-0.1,0.3-0.2c0,0,0,0-0.1,0c-0.1,0-0.1,0-0.1-0.1l0.1,0.1
	c0,0.1,0,0.1,0,0.2c0.1,0,0.1,0.1,0,0.2c0,0-0.1,0-0.1,0s-0.1,0-0.1,0H3.6c0,0.1,0.1,0.1,0.2,0.1l0.1-0.1c0.1-0.1,0.1-0.1,0-0.1
	s-0.1,0,0,0c0.1-0.1,0.2-0.2,0.4-0.3C4.4,25.1,4.4,25,4.5,25c0.1,0,0.1-0.1,0.2-0.2c0.2-0.1,0.4-0.2,0.4-0.2c0,0,0.1,0,0.1,0v0
	c0,0,0,0,0,0c0,0,0,0.1,0.1,0c0,0,0.1,0,0.1,0s0.1,0,0.1,0c0-0.1,0-0.1,0.1-0.1c0,0,0,0,0-0.1c0-0.1-0.1-0.1-0.1-0.1
	c0,0-0.1,0.1-0.2,0.1l-0.1,0.1c-0.1,0.1-0.1,0.1-0.2,0.1l-0.1-0.1c-0.1,0.2-0.2,0.3-0.3,0.3c-0.1,0-0.2-0.1-0.3-0.2v-0.2
	c0-0.1,0-0.2,0.1-0.3c0-0.1,0-0.2-0.2-0.3l0,0.1c-0.1-0.1-0.2-0.1-0.2-0.2c0-0.1,0-0.2,0.1-0.3c0.3-0.2,0.5-0.4,0.7-0.6
	c0.2-0.2,0.4-0.4,0.6-0.5l0.2-0.1h0l0.1,0C5.7,22,6,21.8,6.3,21.5c0.3-0.3,0.6-0.6,0.9-0.9c0.3-0.3,0.6-0.6,0.9-0.9s0.5-0.5,0.7-0.7
	l0.3-0.3c0,0,0.1-0.1,0.2-0.3c0,0,0,0,0-0.1c0,0,0,0,0-0.1c0.2-0.3,0.4-0.5,0.5-0.7c0.1-0.2,0.3-0.4,0.4-0.8
	c0.3-0.5,0.4-0.9,0.3-1.3c-0.1-0.1-0.1-0.2-0.1-0.2s0,0,0,0c0,0,0,0,0,0s0-0.1,0-0.2h0v-0.2c0-0.1,0-0.1-0.1-0.2l0-0.1v0l-0.1-0.1
	c-0.1-0.1-0.1-0.2-0.1-0.3c0-0.1-0.1-0.2-0.1-0.2C10.1,14.1,10,14,10,13.9c0-0.1-0.1-0.2-0.2-0.2l-0.1-0.1c0,0,0,0,0-0.1
	c0,0,0,0,0-0.1c-0.1,0-0.1,0-0.1-0.1c0,0-0.1,0-0.1-0.1c-0.1-0.1-0.1-0.1-0.2-0.2c0-0.1-0.1-0.1-0.2-0.2l-0.1,0l-0.1,0
	c0,0,0-0.1,0-0.1c0,0-0.1-0.1-0.1-0.1l-0.1-0.1l-0.1-0.1v0c-0.1,0.1-0.2,0.1-0.2,0c-0.1,0-0.1,0-0.1-0.1c0,0,0,0,0,0
	c0,0-0.1,0-0.1,0c0-0.1,0-0.2-0.1-0.3c0-0.1,0-0.1,0-0.2c0,0,0-0.1,0-0.2l0,0l0,0c0-0.1,0.1-0.2,0.2-0.3h0.1c-0.1-0.1-0.1-0.1,0-0.2
	c0-0.1,0-0.1-0.1-0.3l0,0c0,0,0,0.1,0,0.1l0,0v0h0c0,0,0-0.1,0-0.1v-0.1l0-0.1l0,0.1v-0.1h0v-0.1c0,0-0.1,0-0.1,0l0,0
	c-0.2,0.1-0.3,0-0.3-0.1c0-0.1,0-0.1,0-0.3c0.2-0.3,0.4-0.6,0.6-0.8C8.6,9.3,8.8,9.1,9,9l0.1-0.1c0,0,0,0,0,0s0,0,0,0
	c0.2-0.2,0.5-0.5,0.7-0.7c0.2-0.2,0.4-0.4,0.7-0.6c0.1-0.1,0.3-0.2,0.4-0.3C11.1,7.1,11.2,7,11.3,7l0.1-0.1c0.1,0,0.1,0,0.1-0.1
	c0,0,0,0,0-0.1l0.2-0.1l0.1-0.1c0-0.1,0-0.1,0.1-0.1c0,0,0,0,0.1-0.1C12,6.1,12,6,12,6c0,0,0-0.1,0-0.1c0,0,0-0.1,0-0.1
	c0.1-0.1,0.2-0.2,0.3-0.3c0.1-0.1,0.1-0.2,0.2-0.4c0.1-0.3,0.1-0.5,0-0.7c0-0.1,0-0.1,0-0.2s0-0.1,0-0.2c-0.1-0.1-0.1-0.2,0-0.3
	c0,0,0,0,0-0.1h0v0l0,0c-0.3-0.3-0.7-0.5-1.2-0.6c0,0-0.1,0-0.1,0s0,0-0.1,0H11c-0.1,0-0.2,0-0.3,0c-0.1,0-0.2,0-0.4,0H9.6
	C9.5,3,9.4,3.3,9.3,3.4C9.2,3.6,9.1,3.8,8.9,4c0,0.1,0,0.1,0,0.2s-0.1,0.2,0,0.2C8.7,4.6,8.6,4.8,8.6,5C8.5,5.2,8.4,5.4,8.2,5.6
	C8,5.9,7.9,6.1,7.8,6.4C7.6,6.6,7.5,6.9,7.5,7.1c0,0.1-0.1,0.2-0.1,0.3c0,0.1-0.1,0.2-0.1,0.3c0,0.2,0,0.3-0.1,0.4
	C7.2,8.2,7.1,8.3,7,8.5c0,0,0,0.1,0,0.1c0,0,0,0.1-0.1,0.1v0.2c0,0.2-0.1,0.5-0.2,0.7c-0.1,0.2-0.2,0.4-0.4,0.7
	c-0.1,0.2-0.1,0.3-0.1,0.4c0,0,0,0.1,0,0.1c0.1,0.1,0.1,0.2,0,0.4c0,0.1,0,0.2-0.1,0.2c0,0.1-0.1,0.2-0.1,0.2L6,11.6
	c0,0.1-0.1,0.2-0.1,0.3c0,0.1,0,0.1,0,0.2c0,0,0,0.1,0,0.1c0,0.1,0,0.1,0,0.2c0,0,0,0.1-0.1,0.1v0c0,0.2,0,0.3-0.1,0.5
	c-0.1,0.2-0.2,0.3-0.2,0.5c-0.1,0.1-0.1,0.3-0.2,0.4c0,0.2-0.1,0.3-0.2,0.5c-0.1,0.2-0.1,0.4-0.1,0.5c0,0.2-0.1,0.4-0.1,0.6
	c0,0.1,0,0.1,0,0.2s0,0.2-0.1,0.2c0,0.1,0,0.1-0.1,0.2c-0.1,0.4-0.2,0.8-0.3,1.3c-0.1,0.4-0.2,0.9-0.4,1.3c-0.1,0.2-0.1,0.3-0.2,0.5
	c-0.1,0.1-0.1,0.3,0,0.6c-0.1,0.1-0.1,0.3-0.1,0.5l-0.3,0.4c0,0,0,0.1,0,0.1s0,0.1,0,0.1c0,0.1,0,0.3,0,0.4c0,0.1-0.1,0.2-0.2,0.3
	c0,0.1,0,0.2,0,0.3c0,0,0,0.1,0,0.1c0,0,0,0,0,0.1c-0.1,0-0.1,0.1-0.1,0.1c0,0.2-0.1,0.5-0.1,0.6S2.7,23,2.7,23.2
	c0,0.1,0,0.1-0.1,0.1c0,0.2,0,0.5,0,0.7s0,0.4-0.1,0.6c0,0.1,0,0.1,0,0.2c0,0.1,0,0.1,0,0.2v0.4c0,0.3,0,0.4-0.1,0.5
	c-0.1,0.1-0.2,0-0.3-0.2c-0.1-0.1-0.1-0.4-0.1-0.7c0-0.1,0-0.1,0-0.2c0,0,0,0,0,0c0.2,0.3,0.2,0.6,0.1,0.8c0.1,0,0.1-0.1,0.2-0.1
	c0,0,0,0,0-0.1c0,0,0,0,0-0.1c-0.1-0.1-0.1-0.2,0-0.3v-0.6c-0.1-0.1-0.1-0.3-0.1-0.5c0-0.2,0-0.3,0-0.6v-0.1c0-0.1,0-0.2,0-0.2v-0.2
	c0-0.1-0.1-0.1-0.3-0.2s-0.3-0.1-0.4-0.1c-0.1,0-0.1,0-0.1,0c0,0,0,0.1,0,0.2V23c0,0.1,0,0.2-0.1,0.2c-0.1,0-0.1,0-0.1,0
	c0,0.3,0,0.5-0.1,0.6c0,0.1-0.1,0.1-0.3,0.1c0-0.1,0-0.2,0-0.3c-0.1-0.1-0.1-0.2-0.2-0.2c0-0.1-0.1-0.1-0.2-0.1c0,0,0,0,0,0
	c0,0,0,0,0,0c-0.1,0.1-0.2,0.1-0.2,0c0-0.1,0-0.2,0-0.4C0,22.2,0,21.6,0.2,21c0,0,0-0.1,0-0.2c0,0,0,0,0-0.1
	c0.1-0.7,0.3-1.4,0.4-2.1c0.1-0.7,0.3-1.4,0.6-2.1c0-0.3,0.1-0.5,0.2-0.8c0-0.1,0-0.2,0-0.2c0.1-0.4,0.3-0.8,0.4-1.2
	c0.1-0.4,0.3-0.8,0.4-1.3c0.3-0.7,0.6-1.4,0.9-2.2c0.3-0.7,0.6-1.5,0.8-2.3l0,0l-0.1,0C4,8.4,4,8.3,4,8.1C4,8,4,7.9,4,7.9
	s0-0.2,0.1-0.2l0,0c0.1-0.1,0.1-0.2,0.1-0.3c0.2-0.4,0.3-0.8,0.4-1.2C4.8,5.7,4.9,5.3,5,4.9c0,0,0.1,0,0.1,0c0.1,0,0.3-0.1,0.4-0.2
	c0-0.1,0-0.1,0-0.2s0-0.1,0-0.2c0.1-0.2,0.3-0.4,0.4-0.6c0.1-0.2,0.2-0.5,0.3-0.7c0,0-0.1,0-0.1,0c0,0,0,0-0.1,0
	C6.1,3.1,6,3.1,5.9,3.1c-0.1,0-0.1,0-0.2,0.1c-0.2,0.1-0.3,0.1-0.4,0H5.1C5,3.3,5,3.4,5.1,3.4c0.1,0,0.1,0,0,0
	C4.9,3.4,4.9,3.5,4.9,3.5c0,0-0.1,0-0.1,0H4.7C4.5,3.7,4.3,3.7,4.1,3.8c-0.2,0-0.4,0.1-0.6,0.2H3.4C3.2,4,3.1,4.1,2.9,4.2
	S2.5,4.3,2.3,4.3C2.1,4.4,2,4.5,2,4.5c-0.1,0-0.1,0.1-0.2,0.1c0,0-0.1,0-0.2,0.1C1.4,4.8,1.2,4.9,1.1,4.8C1,4.7,1,4.6,1.2,4.4
	c0.1-0.1,0.1-0.2,0.3-0.2c0.1,0,0.2-0.1,0.3-0.2L1.8,4c0,0,0.1,0,0.1,0C1.7,4.3,1.5,4.4,1.2,4.4c0.1,0.1,0.2,0.1,0.3,0.1
	c0,0,0-0.1,0-0.1c0,0,0.1-0.1,0.2-0.1C1.9,4.2,2,4.2,2,4.1c0.1,0,0.2-0.1,0.2-0.1c0.1-0.1,0.3-0.2,0.4-0.3s0.2-0.1,0.4-0.2v0l0,0
	c0,0,0,0,0.1,0c0,0,0,0,0.1-0.1l0.2-0.1c0,0,0.1-0.1,0.1-0.1c0,0,0-0.1,0-0.2c0-0.1,0-0.1,0-0.1s-0.1,0-0.2,0C3.3,2.9,3.2,3,3.1,3
	C3.1,3.1,3,3.1,2.9,3V2.9C2.7,3.1,2.6,3.1,2.5,3.1S2.4,3,2.3,2.9c0.1-0.1,0.2-0.1,0.2-0.2c0.1-0.1,0.1-0.2,0.2-0.2
	c0-0.1,0-0.2,0-0.3c0,0,0,0,0,0s0,0,0,0C2.4,2.2,2.3,2.1,2.4,2C2.5,2,2.6,1.9,2.7,1.8c0.5-0.3,1.1-0.5,1.7-0.6c0,0,0.1,0,0.2,0
	c0,0,0,0,0,0c0.3-0.1,0.6-0.2,1-0.3c0.3-0.1,0.6-0.2,0.9-0.3c0-0.1,0.1-0.1,0.2-0.2C6.8,0.3,7,0.3,7,0.3c0.2-0.1,0.3,0,0.4,0
	c0.1,0,0.2,0,0.3,0C8,0.2,8.2,0.2,8.4,0.1v0.1h0c0.1,0,0.2,0,0.2-0.1h0.1C9,0.1,9.2,0,9.4,0s0.4,0,0.8,0.1h0.3c0.1,0,0.2,0,0.3,0
	c0.1,0.1,0.2,0.1,0.3,0.1c0.1,0.1,0.2,0.1,0.3,0.1l0.4,0.1c0.1-0.1,0.1-0.1,0.1-0.1c0.1-0.1,0.2-0.1,0.4,0c0,0,0,0,0.1,0
	c0,0,0,0,0.1,0c0,0,0,0,0.1,0c0,0,0,0,0.1,0l0.3,0.1c0.1,0.1,0.1,0.1,0.2,0.1C13,0.7,13,0.8,13.1,0.8s0.1,0.1,0.2,0.1l0.1,0.1l0.1,0
	c0.1,0,0.1,0.1,0.1,0.1c0,0,0.1,0.1,0.1,0.1v0h0c0,0,0,0,0.1,0c0,0,0,0,0.1,0c0,0,0.1,0,0.1,0s0.1,0,0.1,0.1l0.1,0.1c0,0,0,0,0,0
	s0,0,0,0l0,0c0,0.1,0.1,0.2,0.2,0.3c0,0.1,0.1,0.3,0.2,0.4C14.8,2.8,14.9,3,15,3.3C15.1,3.5,15.1,3.7,15.1,4L15.1,4z M2.7,1.8
	L2.7,1.8L2.7,1.8L2.7,1.8z M4.4,14L4.4,14L4.4,14z"/>
<path class="st0" d="M16.6,9c-0.1,0-0.2,0-0.2,0.2c-0.1,0.1-0.1,0.3-0.1,0.4c0,0.1,0,0.1,0.1,0.1C16.4,9.6,16.5,9.4,16.6,9
	c0.1-0.1,0.1-0.4,0.2-0.6C16.9,8.2,17,8,17.1,7.8c0.1-0.3,0.2-0.6,0.2-0.8c0-0.2,0.1-0.4,0.2-0.6c0.1-0.2,0.1-0.4,0.2-0.5
	c0-0.1,0-0.1,0.1-0.1c0.1-0.5,0.3-1,0.5-1.5c0.1-0.1,0.1-0.1,0.1-0.2s0-0.2,0.1-0.2l0.4,0c-0.1,0.1-0.1,0.3-0.1,0.4s0,0.2-0.1,0.4
	c0,0.2,0,0.4-0.1,0.6c0,0.2-0.1,0.4-0.2,0.6v0.1l0,0c0,0.1,0,0.1,0,0.1s0,0.1,0,0.1c0,0.1,0,0.1,0,0.1c0,0-0.1,0.1-0.1,0.1v0l0.1,0
	c0,0,0-0.1,0.1-0.1c0,0,0.1,0,0.1,0c0.1-0.6,0.3-0.8,0.6-0.8c0.1,0.1,0.1,0.1,0.1,0.2c0,0,0,0.1,0,0.2c0.1,0.1,0.2,0.2,0.2,0.3
	s0.1,0.1,0.3,0.1c0,0,0.1,0,0.1,0v0c0.1-0.1,0.2-0.2,0.3,0c0,0.1,0,0.3,0,0.4c-0.1,0.7-0.3,1.4-0.5,2c-0.1,0.1-0.1,0.2-0.1,0.3l0,0
	c-0.1,0.3-0.1,0.5-0.2,0.5c0,0,0,0,0-0.1V9c0-0.1,0-0.2,0-0.1l-0.1,0.3l0,0.1c0,0.3-0.1,0.6-0.2,0.8c-0.1,0.2-0.2,0.5-0.3,0.7
	l-0.1,0.4v0.1c0.1,0.1,0,0.3,0,0.4l-0.2,0.6l-0.1,0.1c0,0.1,0,0.2-0.1,0.4c0,0,0,0.1,0,0.1c0,0,0,0.1,0,0.1c0,0,0,0.1,0,0.1l0,0.4
	c-0.1,0.1-0.1,0.2,0,0.2v0c-0.2,0.4-0.3,0.7-0.4,1.1l-0.2,1.3c0,0.1,0,0.2,0,0.3s0,0.2-0.1,0.3c0,0.1,0,0.2,0,0.2
	c-0.1,0.2-0.2,0.4-0.2,0.4c0,0-0.1,0-0.1,0c0,0,0,0,0,0c0,0-0.1,0.1-0.2,0.4c-0.1,0.2-0.1,0.4-0.2,0.6c-0.1,0.2-0.1,0.4-0.1,0.6
	l-0.1,0.6l-0.2,0.4l-0.1,0.1c0,0.1,0,0.1,0,0.1c0,0.2,0,0.3-0.1,0.4s-0.1,0.2-0.2,0.3v0.5c0,0,0,0.1,0,0.1c0,0.3-0.1,0.6-0.2,1.1
	c-0.2,0.4-0.3,0.8-0.3,1L15,23.5c0,0.1,0,0.2,0,0.2c0,0,0-0.1,0-0.2c0-0.1,0-0.1,0-0.2s0,0,0,0.1l-0.3-0.1c0-0.1,0-0.1,0,0
	c0,0,0,0.1-0.1,0.1c0,0-0.1,0.1-0.1,0.1c0,0,0,0,0-0.1v-0.4c0-0.1,0-0.2-0.1-0.2c0,0,0,0.1,0,0.3c0,0.1,0,0.2,0,0.3s0,0.2-0.1,0.2
	h-0.1c-0.2,0.1-0.2,0.1-0.2,0c0-0.1,0-0.1-0.2-0.1c-0.1-0.1-0.1-0.1-0.1-0.3c0-0.1-0.1-0.1-0.1,0c0,0.1-0.1,0.2-0.2,0.2l0.1,0.1
	c-0.2,0.1-0.3,0.1-0.4,0C13,23.4,13,23.2,13,23.1c0-0.4,0.1-0.9,0.2-1.4c0.1-0.5,0.2-1,0.4-1.3c0-0.1,0-0.2,0.1-0.3v-0.1
	c0-0.4,0.1-0.7,0.1-0.9c0-0.2,0.1-0.3,0.1-0.4c0-0.1,0.1-0.2,0.2-0.4c0.1-0.1,0.1-0.4,0.3-0.8c0.1-0.1,0.1-0.3,0.1-0.5
	c0-0.2,0-0.3,0-0.5l0-0.3c0.1-0.5,0.2-1,0.3-1.4c0.1-0.5,0.3-1,0.4-1.5c0.2-0.4,0.3-0.8,0.4-1.1c0.1-0.3,0.2-0.6,0.3-1
	c0.1-0.3,0.2-0.7,0.3-1s0.2-0.7,0.4-1.2C16.6,9.1,16.6,9.1,16.6,9C16.7,9.1,16.7,9,16.6,9L16.6,9z M14.6,23.1v-0.2
	C14.6,22.9,14.6,23,14.6,23.1c0,0.1,0,0.1,0,0.2V23.1L14.6,23.1z"/>
<path class="st0" d="M26.8,13.6c-0.1,0.2-0.2,0.3-0.4,0.5c-0.2,0.1-0.4,0.2-0.6,0.3c-0.2,0.1-0.5,0.1-0.7,0c-0.2,0-0.4-0.1-0.4-0.2
	c0.1,0.3,0.1,0.5,0.1,0.7c0,0.2-0.1,0.4-0.1,0.7c-0.1,0.2-0.1,0.4-0.1,0.6c-0.1,0.1-0.1,0.2-0.1,0.3s-0.1,0.3-0.1,0.4
	c0,0.1-0.1,0.3-0.1,0.4c0,0.1-0.1,0.1-0.1,0c0,0,0,0.1,0,0.1c0,0,0,0.1-0.1,0.1c0,0,0,0.1,0,0.1c0,0.2-0.1,0.4-0.2,0.8
	c-0.1,0.3-0.2,0.6-0.3,0.7c-0.1,0.1-0.1,0.2-0.2,0.3c0,0.1-0.1,0.1-0.2,0.1v0c0,0.2-0.1,0.3-0.2,0.4c-0.1,0.1-0.2,0.2-0.2,0.4
	c0,0.1,0,0.1,0,0.3c-0.1,0.1-0.1,0.1-0.1,0.2c0,0.1-0.1,0.2-0.1,0.2h-0.1c0,0,0,0,0,0c-0.1,0.1-0.3,0.2-0.3,0.3
	c-0.1,0.2-0.1,0.3-0.2,0.4c-0.1,0.1-0.3,0.3-0.4,0.4c-0.1,0.2-0.3,0.3-0.4,0.4l-0.2,0.2h0L20.7,23l0,0c-0.1,0.1-0.3,0.2-0.4,0.1
	c0-0.1-0.1-0.2-0.1-0.2c0,0-0.1,0.1-0.2,0.2v0c-0.1,0-0.2,0-0.3,0.1c-0.1,0-0.2,0.1-0.3,0.2c-0.1,0.1-0.2,0.1-0.3,0.1
	s-0.2,0-0.2-0.1h-0.1c-0.1,0-0.2-0.1-0.4-0.4v0c0-0.1-0.1-0.2-0.4-0.3c-0.1-0.2-0.2-0.2-0.4,0c0,0,0,0,0,0c-0.1,0-0.2-0.1-0.2-0.2
	c0-0.1,0-0.2-0.1-0.4c-0.1-0.7,0-1.5,0.1-2.3c0.1-0.9,0.3-1.6,0.4-2.1c0.1-0.2,0.2-0.3,0.3-0.4c0,0,0-0.1,0-0.1
	c0-0.1,0.1-0.3,0.2-0.4v-0.1c-0.1-0.1,0-0.2,0-0.3c0.1-0.2,0.1-0.4,0.2-0.5c0-0.1,0.1-0.3,0.2-0.4h0c0.1-0.6,0.3-1.2,0.6-1.8
	c0.3-0.5,0.6-1,1-1.5c0.1-0.1,0.2-0.2,0.2-0.2s0,0,0.2-0.1c0.1-0.1,0.2-0.1,0.2-0.2c0.1,0,0.1-0.1,0.2-0.1c0,0,0.1-0.1,0.3-0.2
	c0,0,0,0,0,0c0.1,0,0.1-0.1,0.1-0.1s0-0.1,0.1-0.1c0.2-0.1,0.3,0,0.3,0.2c0.1,0.2,0.1,0.4,0,0.5c0,0.1,0,0.1,0,0.1c0,0,0,0,0,0
	c-0.1,0.1-0.1,0.2-0.2,0.2c0,0,0,0,0,0s0.1,0,0.2,0c0.1,0,0.2,0.1,0.3,0.2c0,0,0.1,0,0.1,0c0,0,0,0.1,0,0.1c0.1,0.1,0.1,0.2,0.1,0.3
	s-0.1,0.2-0.2,0.5l-0.1,0.1c0,0.1,0,0.1,0,0.1s0,0,0,0.1c-0.1,0.1-0.1,0.1-0.1,0.2c0,0.1,0,0.2-0.1,0.2c-0.1,0.2-0.1,0.4-0.2,0.5
	c0,0.1-0.1,0.2-0.1,0.3c0,0.1,0,0.1,0,0.2c0.1-0.2,0.1-0.3,0.1-0.4c0.1-0.3,0.1-0.4,0.1-0.4c0,0,0,0.1,0,0.1v0.1
	c-0.1,0.1-0.1,0.2-0.1,0.3c-0.1,0.1-0.2,0.3-0.2,0.5s-0.1,0.4-0.2,0.5c-0.1,0-0.1,0-0.2,0l0,0c0,0,0,0.1,0,0.1
	c0,0.2-0.1,0.4-0.4,0.7c-0.1,0.1-0.2,0.3-0.2,0.5c-0.1,0.2-0.2,0.4-0.3,0.6c0,0.1,0,0.1-0.1,0v0c0.1,0.1,0,0.4-0.1,0.8
	s-0.2,0.6-0.3,0.8c-0.1,0.1-0.1,0.1-0.2,0.2c-0.1,0.1-0.1,0.1-0.2,0.1l0,0c0,0,0,0.1,0,0.1c0,0,0,0.1,0,0.1s0,0.1,0,0.1
	c0,0,0,0,0,0.1c0,0,0.1,0.1,0.1,0.2c0,0,0,0.1,0,0.1c0,0,0,0.1,0,0.1c-0.1,0.1-0.1,0.2-0.1,0.3c0,0.1,0,0.2,0.1,0.3
	c0,0,0.1-0.1,0.1-0.1c0.1-0.1,0.3-0.2,0.5-0.4s0.3-0.3,0.4-0.3h0.1c0.1-0.1,0.1-0.2,0.2-0.3c0-0.1,0.1-0.2,0.2-0.3v-0.3c0,0,0,0,0,0
	l0-0.1c0.1-0.1,0.2-0.2,0.2-0.2c0-0.1,0-0.1,0.1-0.2c0,0,0,0,0,0s0,0,0,0c0,0,0,0,0,0v0h0.1c0-0.1,0.1-0.3,0.2-0.6
	c0.1-0.3,0.2-0.5,0.2-0.6l0.1-0.2c0.1-0.2,0.1-0.3,0.1-0.4c0-0.1,0-0.1,0-0.2c0-0.1,0-0.1,0,0v0c0-0.2,0-0.4,0.1-0.6
	c0.1-0.2,0.1-0.3,0.1-0.5c0.1-0.2,0.2-0.4,0.3-0.6c0-0.1,0.1-0.2,0.1-0.2c0-0.1,0-0.1,0-0.2c0-0.1,0-0.1,0-0.2c0-0.2,0-0.4,0.1-0.6
	c0.1-0.2,0.1-0.3,0.2-0.5v-0.6c0-0.2,0-0.4,0-0.7v0l0,0c0-0.1,0-0.2,0-0.2c0,0,0,0,0-0.2c0.1-0.1,0.1-0.1,0.2-0.2
	c0-0.1,0.1-0.1,0.2-0.1c0,0,0.1,0,0.1,0c0,0,0,0.1,0,0.1v0.1c0,0,0,0.1,0,0c0,0,0,0,0.1,0c0,0,0,0,0.1,0c0.1-0.1,0.1-0.1,0.2-0.1
	s0.1,0,0.2,0c0.2,0.1,0.3,0.2,0.4,0.4c0.1,0.1,0.3,0.3,0.4,0.5c0.3,0.1,0.6,0.2,0.8,0.2c0.2,0,0.4-0.1,0.6-0.2
	c0.2-0.1,0.3-0.1,0.4-0.1c0.1,0,0.2,0.1,0.2,0.3c0,0-0.1,0.1-0.2,0.3c-0.1,0.2-0.2,0.2-0.2,0.2c0.3-0.1,0.5-0.2,0.5-0.1
	C26.7,13.1,26.7,13.3,26.8,13.6L26.8,13.6z"/>
<path class="st0" d="M32,11.3c0.1,0.1,0.2,0.1,0.2,0.2c0,0.4,0,0.9,0,1.3c0,0.5-0.1,0.9-0.2,1.2l0-0.1l0,0.1l0,0
	c0,0.1-0.1,0.2-0.4,0.4c0,0,0,0.1,0,0.1c0,0-0.1,0.1-0.1,0.2s-0.1,0.2-0.1,0.2c0,0.3-0.1,0.5-0.3,0.8L31,15.8L30.8,16
	c-0.1,0.2-0.2,0.3-0.3,0.4c-0.1,0-0.3,0.1-0.4,0.2c-0.2-0.1-0.4-0.1-0.6-0.2c-0.1-0.1-0.2-0.4-0.2-1l-0.1-0.2
	c-0.1-0.1-0.1-0.3-0.1-0.4c0-0.1,0-0.2,0.1-0.3c0,0,0,0,0.1-0.2c0.1-0.2,0.1-0.4,0.2-0.6c0.1-0.2,0.1-0.4,0.2-0.6
	c-0.2,0.1-0.3,0.2-0.3,0.3c0,0.2-0.1,0.2-0.4,0.1l0,0.1c0,0.2,0,0.4-0.1,0.6c-0.1,0.1-0.2,0.3-0.3,0.4c-0.1,0.2-0.1,0.3-0.1,0.4
	c0,0.1-0.1,0.2-0.1,0.2c0,0.1-0.1,0.1-0.2,0.2c-0.1,0.1-0.1,0.2-0.3,0.4c0,0.1-0.1,0.2-0.1,0.5c-0.1,0.3-0.1,0.5-0.2,0.8
	s-0.2,0.5-0.2,0.7c-0.1,0.2-0.1,0.3-0.1,0.3c-0.1,0.1-0.1,0.3-0.1,0.4v0.4c-0.2,0.3-0.3,0.6-0.3,0.9c0,0.3-0.1,0.6-0.2,0.9
	c-0.1,0.1-0.1,0.2,0,0.3c0.1,0.1,0.1,0.1,0.3,0c0.1,0,0.2-0.1,0.3-0.2c0.1-0.1,0.1-0.2,0.2-0.2c0,0,0,0,0,0s0,0,0,0
	c0.1,0,0.1,0,0.1,0c0,0,0,0,0.1,0c0-0.1,0.1-0.1,0.2-0.1c0.1-0.1,0.3-0.1,0.4-0.2c0.1-0.1,0.2-0.2,0.4-0.2c0.1,0,0.1,0,0.2,0
	c0,0,0.1-0.1,0.2-0.1c0,0-0.1-0.1-0.1-0.2c0.1,0,0.1-0.1,0.2-0.2c0,0,0.1,0,0.1,0c0.1-0.1,0.2-0.3,0.4-0.5c0.2-0.2,0.3-0.4,0.4-0.5
	h0.2c0,0,0,0,0.1,0c0,0,0,0,0.1,0c0.1,0.1,0.2,0.3,0.1,0.6s-0.1,0.4-0.2,0.5c0,0.1,0,0.1,0,0.2s0,0.1,0,0.1h0v0
	c-0.1,0.1-0.1,0.2-0.1,0.3c0,0.1,0,0.2,0,0.3c0.1,0.1,0.1,0.1,0.2,0l0.1-0.1c0,0,0.1,0,0.1,0c0.1,0,0.1,0,0.2,0.1
	c0.1,0.1,0.1,0.3,0.1,0.4c0,0.1-0.1,0.2-0.3,0.2c-0.1,0.1-0.2,0.1-0.2,0.1c0,0-0.1,0.1-0.3,0.1c-0.1,0.3-0.3,0.5-0.5,0.7
	c-0.1,0-0.1,0-0.1,0s-0.1,0-0.1,0c0,0.1-0.1,0.1-0.2,0.1c0,0.1,0,0.1-0.1,0.1c-0.2,0.1-0.4,0.3-0.6,0.4c-0.2,0.1-0.3,0.2-0.6,0.3
	h-0.1c-0.1,0-0.2,0-0.3,0c0,0.1-0.1,0.1-0.3,0.1c-0.1,0.1-0.2,0.2-0.3,0.2c-0.1,0-0.2,0-0.3,0.1c-0.2,0-0.4,0-0.6,0.1
	c-0.1,0.1-0.1,0.1-0.1,0c0-0.2,0-0.3,0-0.4c0-0.1-0.1-0.2-0.1-0.3c0-0.1,0-0.1,0-0.2c0-0.1,0-0.1,0-0.2c-0.3-0.5-0.5-0.5-0.6-0.1
	c0,0-0.1,0.1-0.1,0.1c0,0-0.1,0.1-0.1,0.1c-0.1-0.1-0.1-0.1-0.2-0.1c-0.1,0-0.2-0.1-0.2-0.2c-0.1-0.3-0.2-0.5-0.2-0.7
	c0-0.1,0.1-0.3,0.2-0.6c-0.1-0.5,0-0.9,0.1-1.2c0.1-0.4,0.2-0.7,0.3-1.2c0-0.2,0.1-0.4,0.2-0.5c0-0.2,0-0.4,0.1-0.6s0.1-0.4,0.2-0.6
	c0-0.1,0-0.2,0.1-0.3c0-0.1,0.1-0.1,0.1-0.2c0-0.3,0-0.5,0.1-0.7v-0.1c0-0.2,0.1-0.3,0.4-0.4c0-0.1,0-0.1,0-0.2s0-0.1,0.1-0.1
	c0-0.1,0-0.3,0.1-0.4c0.1-0.2,0.1-0.3,0.3-0.4c0.1-0.1,0.2-0.2,0.3-0.4c0-0.1,0-0.2,0.1-0.3c0.1,0,0.1-0.1,0.2-0.2
	c0.1-0.3,0.2-0.5,0.4-0.7c0.2-0.2,0.3-0.3,0.5-0.6l0.4-0.4c0.1-0.1,0.2-0.2,0.3-0.3h-0.1c-0.1-0.1-0.1-0.1,0-0.1
	c0,0,0.1-0.1,0.1-0.2v0l0.1,0c0.1,0,0.3,0,0.4,0c0.1,0,0.3,0.1,0.4,0.2c0.3,0.2,0.6,0.2,0.8,0.1c0.2-0.1,0.5-0.2,0.8-0.3
	C31,11,31.2,11,31.5,11S31.9,11.1,32,11.3L32,11.3z M31.8,13.8L31.8,13.8L31.8,13.8L31.8,13.8z"/>
<path class="st0" d="M35.7,13l-0.2-0.5h0l0,0l0.1,0.3c0-0.1,0.1-0.1,0.1-0.1V13c0-0.2,0.1-0.2,0.2-0.2c-0.1,0.1-0.1,0.2,0,0.1
	s0.2-0.2,0.4-0.3c0.2-0.2,0.4-0.4,0.6-0.6s0.4-0.5,0.6-0.7c0,0,0.1-0.1,0.3-0.4c0.2-0.2,0.3-0.3,0.4-0.4l0.1-0.1v0.1
	c0,0,0,0.1,0,0.1c0.1,0,0.1-0.1,0.1-0.3c-0.2,0.1-0.3,0.1-0.2,0.1c0.1,0,0.1-0.1,0.3-0.1h0.1c-0.1,0-0.1,0-0.1-0.1c0,0,0,0,0-0.1
	c0.1-0.2,0.2-0.2,0.2-0.2L39,9.6c0.1-0.1,0.3-0.2,0.6-0.3v0c0.1-0.1,0.1-0.1,0.2,0.1c0.1,0.1,0,0.4-0.3,0.7c-0.1,0-0.1,0,0,0h0.2
	c0.1,0,0.1,0,0,0c0,0-0.1,0.1-0.1,0.1c0,0-0.1,0.1-0.1,0.1c0,0,0.1,0,0.2-0.2l0.8-0.9c0.1-0.1,0.3-0.1,0.5,0
	c0.2,0.2,0.1,0.4-0.1,0.8c0,0-0.1,0.1-0.2,0.1v0.3l0.1-0.1c0.1,0,0.1,0,0.2,0c0.1,0,0.2-0.1,0.3-0.1l0,0c0,0.1,0.1,0.1,0.1,0.1
	s0,0,0,0.1l0,0.1c-0.1,0.1-0.3,0.2-0.4,0.4l-0.3,0.3l0,0c0,0.1-0.1,0.2-0.2,0.3c-0.2,0.2-0.3,0.3-0.4,0.3c-0.1,0.2-0.2,0.4-0.3,0.5
	c-0.1,0.1-0.3,0.2-0.4,0.4c-0.4,0.2-0.5,0.4-0.5,0.7c0,0-0.1,0-0.1,0c-0.1,0-0.1,0-0.1,0c-0.1,0.2-0.2,0.3-0.3,0.4
	c0,0.1-0.1,0.2-0.1,0.2c-0.2,0.3-0.4,0.4-0.5,0.4c-0.1,0-0.2,0.2-0.3,0.5c-0.1,0.1-0.1,0.1-0.1,0.1c0-0.1,0.1-0.1,0.1-0.2
	c0.1-0.1,0.1-0.2,0.1-0.3c0-0.1,0-0.1-0.1,0c0.1,0.1,0.2,0.1,0.1,0.1v0.4c0,0.1,0,0.2,0,0.3c0,0.3,0,0.6,0,1.1
	c0,0.5,0.1,0.8,0.3,0.9c-0.1,0.2,0,0.3,0.1,0.4c-0.1,0.1-0.1,0.2,0,0.3c0,0.1,0.1,0.2,0.2,0.3v0.1c-0.1,0-0.1,0.1-0.1,0.1
	c0,0,0,0,0,0l0.2,0.8c0,0.1,0,0.1,0.1,0.1s0,0-0.1,0.2c0,0.1,0,0.1,0,0.1c0,0,0,0.1,0,0.1l0.1,0c0.1,0.1,0.2,0.4,0.2,0.7
	s0.1,0.6,0.3,0.8c0,0.1,0,0.2,0.1,0.5c0,0.3,0,0.5-0.1,0.5c0.1,0.4,0,0.7-0.3,0.9s-0.4,0.2-0.6,0.1H38l-0.2,0h-0.1l0-0.1v-0.1
	c0.1-0.1,0.1-0.1,0.1-0.1s-0.1,0-0.1,0.1c0,0,0,0.1,0,0.3c-0.1-0.1-0.1-0.1-0.2,0L37.2,23c-0.1-0.1-0.2-0.1-0.2-0.1c0,0,0,0.1,0,0.2
	l-0.3,0.2l-0.1,0.2l0-0.2c0-0.2-0.1-0.4-0.2-0.7c-0.1-0.3-0.2-0.6-0.3-0.9c-0.1-0.3-0.2-0.6-0.2-0.9c-0.1-0.3-0.1-0.6-0.1-0.8
	c-0.1,0-0.1,0-0.1-0.1c0-0.1,0-0.1,0.1-0.2c-0.1-0.1-0.1-0.2-0.2-0.4c0-0.1-0.1-0.4-0.2-0.6c-0.1-0.3-0.1-0.6-0.2-1.1
	c0-0.5-0.1-1-0.2-1.7l-0.9,3.5l-0.1,0.2c-0.1,0.1-0.1,0.1-0.1,0.2l-0.2,0.5c0,0.2,0,0.3-0.1,0.4c0,0.1,0,0.2,0,0.3s-0.1,0.2-0.1,0.4
	c-0.1,0.1-0.2,0.2-0.2,0.5c0,0.2-0.1,0.4-0.2,0.6c0,0.1,0,0.2,0,0.3c0,0,0,0.1,0,0.1c0,0.1,0,0.1,0,0.1s0,0.1,0,0.1l0,0.1
	c-0.1,0-0.2,0-0.3,0c-0.3-0.3-0.5-0.2-0.6,0.2c-0.1,0.1-0.3,0.1-0.6,0.1c-0.2,0-0.4-0.1-0.6-0.3c-0.1-0.1-0.1-0.2-0.1-0.3v-0.3
	c0.1-0.2,0.1-0.5,0-0.7c0-0.2,0-0.4,0-0.6c0.1,0,0.2-0.1,0.2-0.1c-0.1-0.1-0.1-0.2,0-0.3c0-0.1,0-0.2,0-0.2l0-0.2c0-0.1,0-0.1,0-0.2
	s0-0.1,0-0.2c0-0.1,0.1-0.1,0.1-0.2c0-0.1,0.1-0.1,0.1-0.2c0-0.1,0-0.2,0.1-0.4c0.1-0.2,0.2-0.3,0.3-0.4c-0.1-0.5-0.1-0.9,0.2-1.2
	c0-0.1,0.1-0.1,0.1-0.2s0.1-0.1,0.1-0.2v-0.1c0-0.1,0-0.2,0-0.2s0-0.1,0-0.2V17c0,0,0.1-0.1,0.1-0.1s0-0.1,0.1-0.1c0,0,0,0,0,0
	s-0.1,0-0.1,0c0.1-0.1,0.1-0.4,0.2-0.7c0.1-0.4,0.1-0.6,0.1-0.7c0-0.1,0.1-0.1,0.1-0.2c0.1,0,0.1-0.1,0.1-0.2c0-0.1,0-0.3,0.1-0.4
	c0-0.1,0-0.2,0.1-0.4c-0.1,0-0.1-0.1,0-0.1c0.1-0.3,0.1-0.6,0.2-1c0.1-0.3,0.2-0.6,0.3-1c0.1-0.2,0.1-0.4,0.1-0.5
	c0-0.2,0.1-0.4,0.1-0.5c0-0.1,0-0.1,0-0.1c0,0,0,0,0-0.1c0,0,0,0,0-0.1c0,0,0,0,0-0.1c0.1,0,0.1-0.1,0.1-0.1c0-0.1,0-0.2,0-0.2
	c0,0,0,0,0,0c0,0,0,0,0,0s0-0.1,0-0.2V10c0-0.1,0-0.2,0.1-0.3l0.1-0.3c0,0,0-0.1,0.1-0.1c0.1-0.2,0.1-0.4,0.2-0.5
	c0-0.2,0.1-0.4,0.1-0.6c0.1-0.3,0.1-0.5,0.2-0.7c0.1-0.1,0.2-0.2,0.2-0.3c0-0.1,0-0.2,0.1-0.3c0-0.1,0-0.1,0-0.1c0,0,0,0,0,0
	s0,0,0,0c0-0.2,0.1-0.3,0.2-0.4c0-0.5,0.1-0.9,0.2-1.2c0.1-0.1,0.1-0.1,0.1-0.1c0.1-0.1,0.1-0.2,0.1-0.3c0-0.1,0-0.1,0.1-0.1
	c0,0,0-0.1,0.1-0.1c0,0,0.1-0.1,0.1-0.2L36.1,4l0.5-0.2l-0.1,0.8c0,0.1,0,0.2,0,0.3c0,0-0.1,0.1-0.1,0.2c0,0,0,0.1-0.1,0.1l0.1,0h0
	c0,0.1-0.1,0.1-0.1,0.2c0,0-0.1,0.1-0.1,0.2c-0.1,0.1-0.1,0.1,0,0.2c0,0.1,0.1,0.2,0.2,0.3v0.2c-0.1,0.1,0,0.1,0.1,0
	c0.1,0,0.1-0.1,0.1-0.1c0,0-0.1,0-0.1-0.1c0-0.1,0-0.1,0-0.2s0-0.1,0.1-0.1c0,0,0,0,0,0c0.1-0.6,0.3-0.9,0.7-0.8
	C37.1,4.9,37,5,37,5.1c0.1,0.1,0.1,0.2,0,0.4s0,0.2,0.1,0.1c0,0,0,0,0,0l0,0c0.1-0.1,0.2-0.2,0.3,0s0.1,0.3,0.1,0.4
	c-0.1,0.3-0.1,0.5-0.1,0.7c0,0.2,0,0.4-0.1,0.6c-0.1,0.4-0.2,0.6-0.2,0.7c0,0.1,0,0.1,0,0s0,0,0,0c0,0-0.1,0.2-0.2,0.6
	c0,0.1,0,0.3,0.1,0.4C37,9.1,37,9.2,37,9.4c-0.1,0.1-0.1,0.1-0.2,0.1c-0.1,0-0.1,0.1-0.1,0.1s0,0.1,0,0.1l0.1-0.1l0.1-0.1
	c0,0,0,0,0,0c-0.1,0-0.2,0.1-0.2,0.2v0.3c-0.1,0.3-0.2,0.7-0.3,1.1c-0.1,0.4-0.2,0.8-0.2,1.1l-0.1,0l0,0v0.2c0,0.1,0,0.2-0.1,0.4
	c-0.1,0.1,0,0.1,0.1,0.1c0.1-0.1,0.2-0.1,0.1-0.1L35.7,13L35.7,13z M37.8,10.8L37.8,10.8L37.8,10.8L37.8,10.8z"/>
<path class="st0" d="M48.8,18.7c0,0.1,0,0.2-0.1,0.2c-0.1,0.2-0.2,0.4-0.2,0.4c0,0-0.1,0-0.1,0c0,0,0-0.1,0,0s-0.1,0.2-0.2,0.4
	c0,0.1,0,0.1,0,0.1s0-0.1,0-0.1c0,0,0-0.1,0-0.1s0,0,0,0.1c0,0.1-0.1,0.2-0.1,0.3c0,0.1,0,0.2,0,0.3c-0.1,0.1-0.1,0.2-0.1,0.3
	s-0.1,0.2-0.1,0.2c0,0,0,0.1,0,0.1c0,0,0,0,0,0.1l0,0.1c0,0.1,0,0.3,0,0.4c0,0.1-0.1,0.2-0.1,0.4c0,0.1,0,0.1,0,0.2s0,0.1,0,0.2
	c0,0,0,0.1,0,0.1c0,0,0,0,0,0.1c0,0,0,0.1,0,0.1c0,0,0,0,0,0.1c0,0.3,0,0.5-0.1,0.8c-0.1,0.2-0.1,0.5-0.2,0.7c0,0,0,0.1-0.1,0.1
	c0,0.2-0.1,0.4-0.1,0.4s-0.1,0.1-0.2,0.4v0.4c0,0.1,0,0.3,0,0.4c0,0.4-0.1,0.6-0.2,0.7c-0.1,0.1-0.3,0-0.4-0.2
	c-0.1-0.1-0.1-0.3,0-0.4c0-0.1,0-0.2,0-0.4c0-0.1,0-0.2,0-0.2h0.1c0.1,0.1,0.2,0.3,0.2,0.5c0,0.2-0.1,0.3-0.1,0.5
	c0.1-0.1,0.2-0.1,0.2-0.2l-0.1-0.2c0-0.1,0-0.1,0-0.2c0,0,0-0.1,0-0.2c-0.1-0.1-0.1-0.3-0.1-0.4s0-0.2,0-0.4c0-0.2,0-0.4,0-0.6
	c0-0.2,0-0.4,0-0.6v-0.1c0,0.1,0,0.2,0.1,0.4c-0.1,0.1-0.1,0.2,0,0.3v-0.3c0-0.1,0-0.2,0-0.2c0-0.1,0-0.1,0-0.2c0-0.1,0-0.1-0.1-0.2
	c-0.1-0.1-0.1,0-0.1,0c0,0.1,0,0.1,0,0.2c0,0.3,0,0.5-0.1,0.6c0,0-0.1,0-0.1,0c0,0.3,0,0.4-0.1,0.2c-0.1-0.2-0.2-0.3-0.4-0.3
	c-0.1,0-0.1-0.1-0.1-0.3c-0.1-0.1-0.1-0.1-0.1,0.1c0,0.1-0.1,0.2-0.2,0.3V24c-0.1,0.1-0.2,0.2-0.2,0c0-0.1-0.1-0.2-0.1-0.4
	c0-0.4,0-0.8,0-1.2s0.1-0.8,0.2-1.2V21c0,0,0,0,0-0.1c0,0,0,0,0-0.1c0.1-0.4,0.1-0.6,0.1-0.7c0,0,0,0,0,0c0,0,0,0,0,0
	s0.1-0.2,0.2-0.7c0.1-0.1,0.1-0.3,0.1-0.4c0-0.1,0-0.3,0-0.4c0-0.1,0-0.2,0-0.3c0.2-0.5,0.4-1,0.6-1.5c0.2-0.5,0.4-1,0.5-1.5
	c0.3-0.9,0.7-1.7,1-2.6c0.3-0.9,0.6-1.7,0.9-2.6c0,0,0,0,0,0c0,0,0,0,0,0c-0.2-0.1-0.3-0.3-0.2-0.4c0-0.2,0.1-0.3,0.2-0.5
	c0,0,0-0.1,0.1-0.1c0.1-0.2,0.1-0.4,0.1-0.6c0,0,0-0.1,0-0.1c0.6-0.8,1-1.6,1-2.6h0.1c0.1,0,0.1,0,0.2-0.1c0.1,0,0.1-0.1,0.2-0.2
	c0-0.1,0-0.1,0-0.2c0,0,0-0.1,0.1-0.2c0.2-0.3,0.4-0.6,0.6-1c0.2-0.3,0.3-0.6,0.5-1c-0.1,0-0.1,0.1-0.2,0.1c-0.1,0-0.1,0.1-0.2,0.1
	c-0.1,0-0.1,0.1-0.1,0.1c0,0-0.1,0-0.1,0.1l-0.2,0.2l-0.2,0.3c-0.1,0.1-0.1,0.1-0.2,0.2c0,0-0.1,0.1-0.2,0.2s-0.1,0.1-0.2,0.1
	c-0.1,0-0.1,0-0.2,0c-0.2,0-0.3-0.1-0.2-0.3c0-0.1,0.1-0.2,0.2-0.3c0.1-0.1,0.1-0.1,0.1-0.2c0,0,0-0.1,0.1-0.2L50,3.5h0.1
	c0,0.1-0.1,0.3-0.2,0.4C49.9,4,49.9,4,49.9,4c0,0-0.1,0.1-0.1,0.1c0,0-0.1,0-0.1,0c0,0,0,0-0.1,0c-0.1,0.1-0.1,0.1-0.1,0.1
	c0.1,0,0.2,0,0.4,0c0-0.1,0-0.1,0-0.1c0-0.1,0-0.1,0.1-0.2c0,0,0,0,0.1-0.1c0-0.1,0.1-0.1,0.2-0.3c0.1-0.1,0.2-0.2,0.4-0.3
	c0.1-0.1,0.1-0.2,0.2-0.2C51,3,51,3,51,2.9c0,0,0.1,0,0.1-0.1l0.2-0.2l0.3-0.1l0.1-0.1l0,0c0.1,0,0.1,0,0,0c0,0,0,0.1,0,0v0
	c0,0,0-0.1,0.1-0.1c0,0,0-0.1,0.1-0.1c-0.1,0-0.1,0.1-0.1,0.1s-0.1,0.1-0.1,0.1c-0.1,0-0.1,0.1-0.2,0.1c0,0-0.1,0-0.2,0
	c0,0-0.1,0-0.1,0c0,0.1-0.1,0.2-0.2,0.3c-0.1,0-0.1,0.1-0.2,0.1C50.7,3,50.5,3,50.4,3v0c-0.1,0,0-0.1,0-0.2c0-0.1,0-0.2,0-0.3
	c0-0.1-0.1-0.1-0.2-0.1l0,0.1c-0.2,0.1-0.4,0.1-0.4,0c0,0,0-0.1,0-0.2c0,0,0.1,0,0.1-0.1c0,0,0.1,0,0.1-0.1c0.1-0.2,0.3-0.3,0.5-0.5
	c0.2-0.1,0.4-0.3,0.6-0.4c0.5-0.3,1.1-0.5,1.7-0.6c0.1,0,0.1,0,0.1,0s0.1,0,0.1,0V0.4c0.1-0.1,0.4-0.1,0.8-0.2c0.4-0.1,0.8,0,1.2,0
	h0.1c0.1,0,0.1,0,0.1,0c0,0,0.1,0,0.1,0c0.4,0.1,0.8,0.1,1.2,0.2c0.4,0.1,0.7,0.2,1,0.4c0,0,0.1,0.1,0.2,0.1
	c0.1,0.1,0.2,0.1,0.2,0.2l0.1,0.1l0.1,0l0,0h0l0.1,0.1l0.3,0.3C58.8,1.9,58.8,2,58.9,2c0,0,0.1,0.1,0.2,0.2c0,0.1,0,0.2,0.2,0.3
	l0.3,0.3l0.1,0.1L59.8,3L60,3.4c0.1,0.2,0.2,0.3,0.4,0.4c0.1,0.1,0.1,0.1,0.2,0.2c0.1,0.1,0.1,0.2,0.2,0.2C60.9,4.4,61,4.5,61,4.6
	c0.1,0.3,0.3,0.6,0.4,0.9s0.2,0.6,0.4,0.9c0.1,0.3,0.2,0.7,0.2,1c0,0.3,0,0.7,0,1c0,0.2,0,0.5,0,0.7c0,0.2-0.1,0.5-0.2,0.7
	c-0.1,0.5-0.4,1-0.6,1.4c-0.5,0.9-1.1,1.7-1.9,2.4c-0.2,0.3-0.6,0.6-1.1,1c-0.4,0.3-0.7,0.6-1.2,0.8c-0.4,0.3-0.8,0.5-1.1,0.7
	c-0.1,0-0.1,0.1-0.2,0.1c0,0-0.1,0.1-0.2,0.1c-0.1,0.1-0.3,0.1-0.3,0h0c-0.1,0.1-0.1,0.1-0.2,0.2s-0.2,0.1-0.2,0.2
	c-0.2,0.1-0.4,0.1-0.6,0.2c-0.2,0.1-0.4,0.2-0.6,0.3c-0.1,0.1-0.2,0.1-0.2,0.1s-0.2,0.1-0.2,0.1c-0.2,0-0.5,0.1-0.7,0.2
	s-0.4,0.1-0.7,0.2l0,0c-0.1,0.1-0.1,0.1-0.2,0.2c-0.1,0-0.2,0.1-0.3,0.1c-0.1,0.1-0.2,0.1-0.3,0.1c-0.1,0-0.2,0-0.3,0.1
	c-0.2,0-0.4,0.1-0.5,0.2c-0.1,0-0.1,0-0.2,0h-0.2c-0.1-0.1-0.2-0.1-0.2-0.2c0.1-0.1,0.2-0.3,0.4-0.4c0.1-0.1,0.3-0.1,0.4-0.2
	c0.1,0,0.2-0.1,0.4-0.2c0.1-0.1,0.2-0.2,0.4-0.4c0.1-0.1,0.2-0.2,0.1-0.4c-0.2,0-0.3,0-0.5,0c-0.1,0-0.3,0-0.5,0.1
	c-0.4,0-0.5-0.1-0.1-0.4c0.2-0.1,0.4-0.2,0.6-0.3s0.4-0.2,0.7-0.2l0.7-0.3l0.2-0.1l0.3-0.1c0.1-0.1,0.3-0.1,0.4-0.2
	c0.1,0,0.2-0.1,0.3-0.2c0-0.1,0.1-0.1,0.2-0.2c0.1-0.1,0.1-0.1,0.1-0.1c0.1-0.1,0.2-0.2,0.3-0.2c0.1-0.1,0.2-0.1,0.4-0.2l0.2-0.1
	c0,0,0.1,0,0.1,0s0.1,0,0.1,0c0.1-0.1,0.2-0.2,0.3-0.2c0.1-0.1,0.2-0.1,0.4-0.2c0.2-0.2,0.5-0.3,0.8-0.5c0.3-0.2,0.6-0.3,0.9-0.6
	c0.1-0.1,0.2-0.1,0.2-0.2c0.1,0,0.1-0.1,0.2-0.2v-0.1c0-0.1,0-0.1,0.1-0.2l0.1-0.2c0.1-0.1,0.2-0.1,0.3-0.2c0.1-0.1,0.2-0.2,0.3-0.3
	c0,0,0,0,0.1,0c0,0,0,0,0.1,0c0,0,0.1,0,0.1-0.1c0,0,0.1,0,0.1-0.1l0.1-0.1c0-0.1,0-0.1,0.1-0.2l0.1-0.1l0.1-0.2c0,0,0.1,0,0.1-0.1
	c0,0,0.1,0,0.1-0.1v0l0.1-0.3c0-0.1,0-0.1,0-0.1c0,0,0-0.1,0-0.1c0.1-0.1,0.1-0.2,0.1-0.3c0-0.1,0-0.2,0.1-0.3
	c0.2-0.4,0.2-0.7,0.2-1.1c0-0.3,0-0.7-0.2-1.2c-0.1-0.1-0.1-0.2-0.1-0.3c0,0,0-0.1,0-0.1V6.8c-0.1-0.1-0.1-0.1-0.1-0.3
	c-0.1-0.2-0.2-0.5-0.4-0.7c-0.1-0.2-0.3-0.5-0.4-0.7c-0.2-0.2-0.4-0.5-0.6-0.7c-0.2-0.2-0.4-0.5-0.6-0.7c-0.1-0.2-0.3-0.4-0.4-0.5
	c-0.1-0.2-0.3-0.3-0.6-0.5l0,0l0,0c0,0,0,0,0,0s0,0,0,0l-0.2-0.1c-0.1,0-0.1,0-0.2-0.1c-0.1,0-0.1,0-0.2-0.1c0,0-0.1,0-0.1,0
	c0,0,0,0-0.1,0l0,0h-0.1c-0.1,0-0.1,0-0.2,0h-0.1c-0.1,0.2-0.1,0.3-0.2,0.4c-0.1,0.2-0.1,0.3-0.1,0.4c-0.1,0.3-0.3,0.6-0.4,0.9
	c-0.1,0.3-0.3,0.5-0.6,0.8c-0.1,0.2-0.3,0.6-0.4,1C53,6,52.8,6.4,52.7,6.8c-0.1,0.4-0.3,0.8-0.5,1.3l0,0c-0.1,0.1-0.1,0.3-0.2,0.5
	s-0.1,0.3-0.1,0.5c0,0.2,0,0.4-0.1,0.5s-0.2,0.3-0.2,0.4l-0.1,0.3c0,0,0,0.1,0,0.1c0,0,0,0,0,0.1c-0.1,0.3-0.1,0.6-0.2,0.8
	c-0.1,0.2-0.2,0.5-0.3,0.7c-0.1,0.1-0.2,0.3-0.2,0.4c0,0,0,0.1,0,0.1c0,0,0,0.1,0,0.1c0,0.1,0,0.3,0,0.4c0,0.1-0.1,0.2-0.1,0.3
	c0,0.1-0.1,0.2-0.2,0.3c0,0,0,0.1,0,0.1c0,0,0,0,0,0.1c0,0.1-0.1,0.2-0.1,0.4c0,0.1,0,0.1,0,0.1c0,0,0,0.1,0,0.1v0.1
	c0,0.1-0.1,0.1-0.1,0.2s-0.1,0.1-0.1,0.2v0c0,0.2,0,0.4-0.1,0.6c-0.1,0.2-0.2,0.3-0.3,0.6c-0.1,0.3-0.2,0.6-0.3,1
	c-0.1,0.2-0.2,0.5-0.2,0.6c0,0.2-0.1,0.4-0.2,0.6c0,0.1,0,0.2,0,0.3S48.8,18.6,48.8,18.7L48.8,18.7z"/>
<path class="st0" d="M62.3,21.8c-0.1,0.3-0.3,0.5-0.4,0.5h0l-0.3,0.1c-0.1,0.1-0.1,0.1-0.3,0.1c-0.1,0.1-0.1,0.1-0.3,0.2
	s-0.2,0.1-0.4,0.1L60.1,23c-0.1,0.1-0.1,0.1-0.1,0c0-0.2,0-0.3,0-0.4c0-0.1-0.1-0.2-0.1-0.4l0-0.2c-0.2-0.5-0.4-0.5-0.4,0l-0.2,0.1
	c-0.1,0-0.1,0-0.2,0s-0.1,0-0.2-0.1c-0.1-0.1-0.1-0.2-0.1-0.4c0-0.1-0.1-0.3-0.1-0.4v-0.7c0-0.1,0-0.1,0-0.2c0-0.1,0-0.1,0-0.2
	c0-0.1,0-0.3,0-0.4c0-0.1,0-0.2,0.1-0.4c0-0.1,0-0.1,0-0.2c0-0.1,0-0.1,0-0.2c0-0.1,0.1-0.2,0.1-0.3c0-0.1,0-0.2,0.1-0.3l0.1-0.7
	c0-0.1,0-0.1,0-0.2c0-0.1,0-0.1,0-0.2c0.1-0.1,0.1-0.2,0.1-0.2s0.1-0.2,0.1-0.2c0-0.1,0.1-0.2,0.1-0.3c0-0.1,0.1-0.2,0.1-0.2
	c0.1-0.1,0.1-0.3,0.3-0.6L60,15c0-0.2,0.1-0.3,0.2-0.4c0-0.1,0-0.1,0-0.2c0-0.1,0-0.1,0-0.1c0-0.2,0.1-0.3,0.2-0.4
	c0-0.1,0.1-0.2,0.2-0.4c0.1-0.1,0.2-0.2,0.4-0.3c0.1-0.2,0.2-0.3,0.4-0.4c0-0.3,0.2-0.5,0.4-0.7c0.1-0.1,0.1-0.1,0.2-0.2
	c0.1-0.1,0.2-0.1,0.2-0.2c0.1-0.1,0.2-0.1,0.2-0.2c0.1,0,0.2-0.1,0.3-0.2h-0.1c0-0.1,0-0.1,0.1-0.2c0-0.1,0-0.1,0-0.1
	c0.3,0,0.5,0.1,0.7,0.2c0.1,0.1,0.2,0.2,0.4,0.2c0.2,0,0.4,0,0.7-0.1c0.1,0,0.2-0.1,0.3-0.1s0.2-0.1,0.3-0.1c0.1,0,0.3,0,0.4,0
	s0.2,0,0.4,0.1c0.1,0,0.1,0.1,0.3,0.2l0.1,0.1c0.1,0,0.3,0,0.4,0.1c0.1,0.1,0.3,0.2,0.4,0.3c0.1,0.1,0.2,0.2,0.1,0.5
	c0,0,0,0.1,0,0.2c0,0.1,0,0.2,0,0.2c0,0,0,0.1,0,0.4c-0.1,0.1-0.1,0.3-0.1,0.4s0,0.2,0,0.2v0.1c0,0,0,0.1-0.1,0.3
	c0,0.1-0.1,0.2-0.1,0.4c-0.1,0.1-0.1,0.2-0.1,0.3c0,0.1-0.1,0.2-0.1,0.3h0.1c0,0-0.1,0.1-0.1,0.1c0,0,0,0.1-0.1,0.2
	c0,0,0,0.2-0.1,0.4c0,0.1-0.1,0.2-0.1,0.3c0,0.1-0.1,0.2-0.1,0.4c-0.1,0.1-0.1,0.2-0.1,0.4c0,0.1-0.1,0.2-0.1,0.4
	c-0.1,0.1-0.1,0.3-0.2,0.4c0,0.1-0.1,0.3-0.2,0.4c0,0.1,0,0.2-0.1,0.4c0,0.1-0.1,0.3-0.1,0.5l-0.1,0.4c-0.1,0.1-0.1,0.3-0.1,0.4
	c0,0.1,0,0.2-0.1,0.3c0,0.1-0.1,0.2-0.1,0.3c0,0.1,0,0.2,0,0.2c0,0.1-0.1,0.3-0.1,0.4s-0.1,0.2-0.1,0.3c0,0.1-0.1,0.2-0.1,0.3
	s-0.1,0.2-0.1,0.2c-0.1,0.1-0.1,0.2-0.1,0.3c0,0.1-0.1,0.2-0.1,0.2c-0.1,0.2-0.3,0.4-0.3,0.4c-0.1,0.1-0.3,0.2-0.3,0.2h-0.1
	c0,0.1-0.1,0.1-0.3,0.1c-0.1,0.1-0.2,0.1-0.3,0s-0.2-0.1-0.3,0c-0.1,0-0.1,0-0.2,0c-0.1,0-0.2,0-0.3,0c-0.1,0.1-0.1,0-0.1,0v0h-0.1
	c-0.1,0.1-0.1,0,0-0.1s0-0.1,0-0.1c-0.1-0.1-0.1,0,0,0.1c0,0.1,0,0.1,0,0.1c0,0-0.1,0-0.1-0.1c0,0-0.1,0-0.1-0.1
	c-0.1-0.1,0-0.3,0.1-0.4c0.1-0.1,0.2-0.2,0.2-0.3h0L62.3,21.8L62.3,21.8L62.3,21.8z M62.1,19.4c0-0.1,0-0.1,0.1-0.3
	c0.1-0.1,0.1-0.2,0.2-0.4c0-0.1,0-0.1,0.1-0.2c0,0,0-0.1,0.1-0.2c0.1-0.1,0.1-0.2,0.2-0.3c0.1-0.1,0.1-0.2,0.1-0.2l0.2-0.6l0.4-1
	l0.4-1.2l0.2-0.4l0.1-0.3l0.1-0.4l0.2-0.7c-0.1-0.1-0.1-0.1-0.1-0.1c0,0,0,0,0,0c0,0,0,0.1,0.1,0.1c0,0,0.1,0.1,0.1,0h0l-0.2,0.1
	c-0.1,0.1,0,0.1,0.1,0c0.1,0,0.2-0.1,0.1-0.1c-0.1,0.1-0.1,0.1-0.2,0.2c-0.1,0-0.2,0.1-0.3,0.2c-0.2,0.2-0.3,0.3-0.4,0.4
	c-0.1,0.1-0.2,0.2-0.2,0.3c-0.1,0.1-0.1,0.2-0.2,0.3c-0.1,0.1-0.1,0.1-0.2,0.2c-0.1,0.1-0.1,0.2-0.2,0.3c-0.1,0.1-0.1,0.1-0.2,0.2
	c-0.1,0.1-0.1,0.2-0.2,0.3c0,0.1-0.1,0.1-0.1,0.1c0,0,0,0.1-0.1,0.1l-0.1,0.3c0,0.1-0.1,0.1-0.1,0.2c0,0-0.1,0.1-0.1,0.2
	c-0.1,0.3-0.2,0.5-0.3,0.7c-0.2,0.3-0.3,0.5-0.3,0.7c-0.1,0.1-0.1,0.2-0.2,0.4c0,0.1,0,0.1,0,0.1c0,0,0,0.1,0,0.1l-0.1,0.5
	c0,0.1,0,0.1,0,0.1c0,0,0,0.1,0,0.1c0,0.1,0,0.3,0,0.4v0.8c0,0.1,0.1,0.1,0.2,0c0.1-0.1,0.2-0.1,0.2-0.1c0.1,0,0.2-0.1,0.3-0.1
	c0.1-0.1,0.2-0.2,0.2-0.3c0-0.1,0.1-0.2,0.3-0.3L62.1,19.4L62.1,19.4z"/>
<path class="st0" d="M74.4,12.7c-0.1,0.2-0.3,0.4-0.3,0.6c-0.1,0.2-0.1,0.4-0.2,0.6c-0.1,0.2-0.3,0.4-0.4,0.7
	c-0.1,0.3-0.1,0.7,0.1,1.2c0,0.1,0,0.2,0,0.3c0,0.1,0,0.2,0,0.3c0,0.1,0,0.2-0.1,0.4c-0.1,0.1-0.2,0.1-0.4,0.1V17
	c-0.1,0.1-0.1,0.2-0.1,0.2c-0.6,0.4-1,0.5-1.2,0.3h-0.4c-0.2,0-0.3,0.1-0.3,0.1c-0.1,0.1-0.2,0.1-0.2,0c0-0.1,0.1-0.2,0.1-0.4
	c-0.1-0.4-0.1-0.8,0-1.3c0-0.1,0-0.1-0.1-0.2c-0.1-0.1-0.2-0.2-0.2-0.2c-0.1-0.1-0.2,0-0.2,0.1c0,0.1-0.1,0.2-0.2,0.3
	c0,0.1,0,0.1-0.1,0.1h-0.1C70.1,16,70,16.1,70,16.3c0,0.1-0.1,0.2-0.1,0.3c-0.1,0.2-0.2,0.4-0.2,0.5s-0.1,0.2-0.3,0.5
	c0,0.1-0.1,0.2-0.1,0.4s-0.1,0.3-0.2,0.4c0,0.1,0,0.1,0,0.2c0,0,0,0.1,0,0.2c-0.1,0.2-0.1,0.4-0.2,0.6c-0.1,0.2-0.2,0.4-0.2,0.6
	c0,0.1,0,0.2,0,0.3c0,0-0.1,0-0.2,0c0.2,0.2,0.1,0.4-0.1,0.6c-0.1,0.4-0.3,0.8-0.3,1.1c-0.1,0.3-0.1,0.7-0.2,1.1
	c0,0.2,0,0.3-0.1,0.4c-0.1,0.1-0.2,0-0.3-0.2v-0.2c-0.1,0-0.2,0-0.1,0c0,0,0,0,0,0.2c0,0.2,0,0.2-0.2,0.1c-0.1,0.1-0.3,0.1-0.3,0
	c-0.1-0.1-0.1-0.1-0.2-0.2c0-0.1-0.1-0.1-0.1-0.2s0,0,0,0.2c-0.1,0.1-0.1,0.2-0.3,0.2c-0.1,0-0.2,0-0.4-0.1
	c-0.2-0.1-0.3-0.2-0.4-0.3s-0.1-0.3-0.1-0.4c0.1-0.2,0.1-0.4,0.1-0.5c0-0.1,0.1-0.3,0.3-0.5c0.1-0.2,0-0.4-0.1-0.7
	c0.1-0.1,0.2-0.3,0.2-0.5c0-0.2,0.1-0.3,0.2-0.4l0.1-0.3c-0.1-0.1-0.1-0.2,0-0.2s0.1,0,0-0.2c0-0.1,0-0.1,0-0.1c0,0,0.1-0.1,0.2-0.1
	c0-0.2,0.1-0.4,0.2-0.7c0.1-0.3,0.2-0.4,0.4-0.4v-0.1c0.1-0.1,0.2-0.3,0.2-0.5c0-0.2,0.1-0.3,0.3-0.4l-0.1,0l0.1,0
	c0-0.1,0-0.1,0-0.2s0-0.1,0-0.2v0c0-0.3,0-0.5,0.1-0.6c0-0.1,0.1-0.3,0.2-0.6c0-0.1,0-0.1,0.1-0.2c0-0.1,0-0.2,0.1-0.2
	c0.1-0.4,0.2-0.9,0.4-1.5s0.4-1.1,0.6-1.5c0.1-0.2,0.3-0.3,0.5-0.2c0.2,0.1,0.4,0.1,0.5,0.1c0.1,0,0.2,0,0.4,0.2
	c0.1,0.2,0.3,0.2,0.4,0.2c0.1-0.1,0.1-0.1,0.2,0c0,0.1,0,0.1,0,0.2c0,0.1,0,0.2,0,0.2s0.1,0.1,0.2,0.1c0.1,0,0.2-0.1,0.3-0.2
	c0.1-0.1,0.2-0.2,0.5-0.3c0.1-0.1,0.1-0.2,0.2-0.1c0.1,0,0.1,0,0.2,0c0.1,0.1,0.1,0.1,0.2,0c0.1-0.1,0.2-0.1,0.3-0.2
	c0.1-0.1,0.3,0,0.3,0c0.1,0.1,0.2,0.1,0.3-0.1c0.2-0.3,0.4-0.3,0.5,0.1c0.2,0.2,0.3,0.3,0.3,0.4V12c0,0.1,0,0.1-0.1,0.2
	c-0.1,0.1-0.1,0.2,0,0.2c0.1-0.1,0.2-0.2,0.2-0.2c0,0,0.1,0,0.3,0L74.4,12.7L74.4,12.7z"/>
<path class="st0" d="M74.1,23L74.1,23l0-0.2l0.1,0c0.1-0.1,0.1-0.2,0-0.2c-0.1,0-0.1,0.1-0.2,0.3c0,0.1,0,0.2,0,0.3
	c0,0.1,0,0.2,0,0.2h-0.1c0,0.1,0,0.2-0.1,0.2c0,0,0,0,0,0s0-0.1,0-0.2c0-0.1-0.1-0.1-0.2-0.1c-0.1-0.1-0.1-0.1-0.2-0.3
	c-0.1-0.1-0.1-0.1-0.2,0.1c-0.1,0.2-0.2,0.3-0.2,0.3h-0.2c-0.1,0.1-0.2,0.2-0.2,0.1c0-0.1,0-0.2,0.1-0.3c0.1-0.2,0.1-0.5,0.2-0.8
	s0.1-0.7,0.2-1c0.1-0.4,0.1-0.7,0.2-1c0.1-0.3,0.2-0.6,0.4-0.8c0-0.1,0-0.1,0-0.1s0-0.1,0-0.1l0-0.1c0.1-0.2,0.1-0.5,0.2-0.8
	c0.1-0.3,0.1-0.6,0.3-0.8c0.1-0.1,0.1-0.4,0.2-0.8c0-0.4,0.1-0.6,0.1-0.8c0.2-0.9,0.4-1.7,0.6-2.2c0.1-0.6,0.3-1.2,0.4-1.9
	c0,0,0.1,0,0.1,0s0,0-0.1-0.1c0-0.1,0-0.2,0-0.3c0-0.1,0.1-0.2,0.1-0.3v0c0-0.1-0.1-0.2-0.2,0c-0.2,0.1-0.3,0.2-0.4,0.1
	c-0.1,0-0.2,0-0.2,0c-0.1,0-0.1,0.1-0.2,0.1c0,0.3-0.2,0.3-0.5,0.1c-0.1-0.2-0.1-0.5,0.1-0.8c-0.2,0-0.5,0-0.8,0.1
	c-0.3,0.1-0.5,0-0.7-0.3c0-0.1,0-0.2,0-0.3c-0.1-0.2-0.1-0.3,0-0.3c0.1,0,0.1,0,0.2,0l0.5-0.1h0c0,0,0,0,0,0
	c0.2-0.1,0.4-0.2,0.5-0.3s0.2,0,0.4,0.1l0.1,0c0.1-0.2,0.2-0.4,0.3-0.4s0.2,0,0.4-0.1c0.2-0.1,0.4-0.2,0.7-0.2
	c0.2,0,0.5-0.1,0.7-0.2c0.1,0,0.1-0.1,0.1-0.1c0,0,0-0.1,0-0.3c0-0.1,0-0.1,0.1-0.2c0.1-0.1,0.2-0.1,0.2-0.2
	c0.1-0.2,0.1-0.3,0.1-0.3c0,0,0,0-0.1,0c0,0-0.1,0-0.1,0c0,0,0-0.1,0.1-0.3c0.1-0.3,0.2-0.5,0.3-0.6s0.1-0.3,0.2-0.4
	s0.1-0.3,0.2-0.4c0.1-0.1,0.2-0.3,0.3-0.6c0.3-0.4,0.7-0.5,1.1-0.4c0.4,0.1,0.8,0.1,1,0.2L80,5.7h0l0.1,1L80,6.8v0.1l-0.3,0.7
	L79.6,8c0,0.1,0,0.1,0,0.2c-0.1,0.1,0,0.1,0,0.2c0.1,0.1,0.1,0.1,0.3,0c0.1-0.1,0.2-0.1,0.3,0c0.3,0.1,0.5,0,0.7-0.1
	c0.1,0,0.2,0,0.4,0c0.2,0,0.4,0.1,0.4,0.1c0.4-0.1,0.7-0.1,1.1,0c0.3,0,0.7,0,1.1,0c0.3-0.1,0.7-0.1,1-0.1s0.6,0,0.7-0.1
	c0.2,0.1,0.5,0.1,0.7,0.2s0.3,0,0.1,0c-0.3,0-0.5-0.1-0.4-0.1c0,0,0.2,0,0.4-0.1c0.2,0,0.5,0,0.9,0c0.4,0,0.7,0,1-0.1
	c0.1,0,0.2,0,0.3,0c0.2-0.1,0.5-0.1,0.8-0.1c0.3,0,0.5,0.1,0.8,0.1C90.2,8,90.4,8,90.6,8c0.2,0,0.3,0.1,0.5,0.2v0h0
	c0-0.1,0-0.1,0-0.2c0.1,0,0.2,0,0.2,0c0,0,0-0.1,0-0.1c0,0,0-0.1,0-0.1c0-0.1,0.1-0.1,0.3-0.1c0.2-0.1,0.5,0,0.8,0.1h0.1
	c0.1,0,0.2,0,0.3,0s0.2,0,0.3,0l0.3,0.1l0.2,0c0.1,0.1,0.3,0.1,0.4,0.1c0.1,0,0.3,0.1,0.4,0.2c-0.1,0.1-0.3,0.1-0.4,0.1
	s-0.2,0-0.2,0c-0.1,0-0.1,0-0.3,0.1c-0.1,0-0.2,0-0.2,0l-0.2,0.1c-0.1,0.1-0.2,0.1-0.3,0c-0.1-0.1-0.3-0.1-0.5,0
	c-0.2,0-0.4,0.1-0.5,0.1c0,0,0,0.1,0,0.2h0.6c0.2,0,0.4,0,0.6,0.1l0,0l-0.3-0.1c0.1,0,0.2,0,0.3,0c0.1,0,0.1,0,0.2,0
	c0.4,0,0.7,0,1.1,0c0.4,0,0.8,0.1,1.1,0.1h0.2c0.2-0.1,0.4,0,0.5,0c0.1,0,0.4,0,0.7,0L97.7,9c0.1-0.1,0.2-0.2,0.2-0.2h0.2
	c0.2,0,0.5,0.1,0.7,0.1c0.3,0,0.5,0.1,0.7,0.1l0.4,0.1c0.1,0,0.2,0.1,0.2,0.1c0.1,0.1,0.1,0.1,0,0.2c0,0.1-0.1,0.2-0.4,0.2
	c-0.1,0-0.1,0-0.2,0c-0.1,0-0.2,0-0.3-0.1c-0.3,0.1-0.6,0.1-0.9,0.1c-0.3,0-0.6,0-0.8,0c-0.1,0.1-0.3,0.1-0.4,0.1
	c-0.1,0-0.2,0-0.3,0c-0.1,0.1-0.2,0-0.2,0v0h0c-0.1,0-0.2,0-0.2,0c-0.1,0-0.2,0-0.2,0.1H96c-0.2-0.1-0.4-0.1-0.5,0h-0.1
	c0,0-0.1,0-0.1,0c0,0-0.1,0-0.1,0v0l-0.4,0.2c-0.2,0-0.4,0-0.5,0c-0.1,0-0.3,0-0.5,0c-0.2,0-0.3,0-0.5,0c-0.1,0.1-0.1,0.1-0.2,0v0
	h-0.1l-0.1,0.1h0c0.1,0,0.1,0,0.2,0c0.1,0.1,0.1,0.1,0.2,0.1c0.1,0,0.2,0,0.3,0.1l0,0c0,0.1,0,0.2,0,0.2l0,0c-0.1,0-0.2,0-0.3,0
	c-0.1,0-0.2,0-0.3,0l-0.5,0h-0.1c0,0-0.1,0-0.3,0c-0.2,0-0.4,0-0.5-0.1h0c-0.2,0.1-0.4,0.1-0.6,0c-0.2,0-0.4,0-0.6,0
	c-0.2-0.1-0.4-0.1-0.6,0c-0.2,0-0.3,0.1-0.4,0.1c-0.1,0-0.2,0-0.3-0.1c-0.1-0.1-0.1-0.1-0.2-0.1s-0.1,0-0.2-0.1
	c-0.5,0.1-0.9,0.1-1.4,0.2c-0.5,0.1-0.9,0.1-1.4,0l-0.3,0h-0.2c-0.3,0.1-0.5,0.1-0.8,0.1s-0.5,0-0.8,0c-0.6,0.1-1,0.1-1.1,0.1
	c-0.3,0.1-0.6,0.1-0.9,0c-0.3,0-0.6,0-0.8,0.2c-0.4,0.1-0.7,0.1-1,0.1c-0.3,0-0.6,0.1-0.9,0.2c-0.1,0-0.1,0-0.2-0.1c0,0,0,0,0,0
	c-0.1,0.1-0.1,0.3-0.1,0.3c0,0.1-0.1,0.1-0.1,0.3L78,12.5v-0.1l-0.2,0.3v0.2c-0.1,0.1-0.1,0.2,0,0.2c0,0.1,0,0.2,0,0.2
	c-0.1,0.1-0.1,0.1,0,0.1v0l0,0v0c0.1,0,0.1,0,0.1-0.1c0,0,0,0-0.1,0.2c0,0.1-0.1,0.1-0.1,0.2c0,0,0,0.1,0,0.1v-0.1
	c-0.1,0.1-0.2,0.3-0.2,0.4c0,0.1-0.1,0.3-0.2,0.4L76.9,16v0.3c0,0.1,0,0.2-0.1,0.2c-0.1,0.1-0.1,0.2,0,0.2c-0.1,0.3-0.2,0.4-0.2,0.4
	c0,0.1,0,0.2-0.1,0.4c-0.1,0.2-0.2,0.5-0.3,0.6c-0.1,0.2-0.1,0.4,0,0.6c0,0.1-0.1,0.1-0.1,0.2c0,0-0.1,0.1-0.1,0.2
	c-0.1,0.2-0.2,0.4-0.1,0.6l-0.1,0.1c0,0.1,0,0.1,0,0.1l-0.3,0.7c-0.1,0.1,0,0.1,0.1,0.2c0.1,0.1,0.1,0.1-0.1,0.2
	c-0.1,0-0.1,0.1-0.1,0.2c0,0,0,0,0,0h0.1c0,0.3-0.1,0.6-0.2,1c-0.1,0.4-0.2,0.7-0.2,0.9c0,0,0,0.1-0.1,0.1c-0.1,0.2-0.3,0.3-0.5,0.2
	C74.3,23.5,74.1,23.3,74.1,23L74.1,23C74.1,23.1,74.1,23.1,74.1,23c0,0.1,0,0.1,0,0.2L74.1,23L74.1,23z M74.1,22.9L74.1,22.9
	C74.1,22.9,74.1,22.9,74.1,22.9z M75.3,11.2L75.3,11.2L75.3,11.2L75.3,11.2z M77.8,13.3V13c0,0,0,0,0,0c0,0,0,0,0,0l0,0l0.2-0.4v0
	c0-0.1,0,0,0,0.3c-0.1,0.2-0.1,0.5-0.2,0.7h0C77.7,13.4,77.7,13.4,77.8,13.3L77.8,13.3z M79.7,7.8c0.1-0.1,0.1-0.1,0.2-0.1
	c0,0,0,0.1,0,0.2c0,0.1-0.1,0.1-0.2,0.2c-0.1,0.1-0.1,0.1-0.1,0.1c0-0.1,0.1-0.1,0.1-0.2C79.7,7.9,79.7,7.9,79.7,7.8z"/>
<path class="st0" d="M85.2,11.4c0.2-0.1,0.4-0.1,0.6,0c0.2,0,0.5,0.1,0.6,0.2c0,0.2,0,0.3,0,0.5c0,0.2-0.1,0.3-0.1,0.5
	c0,0.2-0.1,0.3-0.2,0.6l0,0c0,0.1,0,0.1,0,0.2v0.3c0,0.1,0,0.3,0,0.4c0,0.1,0,0.1,0,0.2s0,0.1,0,0.2c0,0.1,0,0.1,0,0.1
	c0,0-0.1,0.1-0.1,0.1c-0.1,0.2-0.1,0.3-0.1,0.5c0,0.2-0.1,0.3-0.1,0.5c-0.1,0.1-0.1,0.1-0.1,0.2c0,0.1-0.1,0.2-0.1,0.2c0,0,0,0,0,0
	v0c0,0.1,0,0.1,0,0.1c0,0,0,0,0,0.1c-0.1,0.4-0.3,0.8-0.5,1.2c-0.1,0.2-0.1,0.3-0.1,0.4c0,0,0,0.1,0,0.1c0,0.1,0,0.1-0.1,0.3
	c-0.1,0.1-0.1,0.2-0.2,0.3c0,0.1,0,0.1,0,0.2c0,0,0,0.1,0,0.2l0,0.1c-0.1,0.1-0.1,0.1-0.1,0.2s0,0.1,0,0.2c0,0,0,0.1,0.1,0.1
	c0,0,0,0.1,0,0.1c0,0,0,0,0,0c0,0,0,0,0,0c-0.1,0.1-0.1,0.2-0.1,0.2h0v0c0,0.1,0,0.1-0.1,0.3c0,0.2-0.1,0.5-0.1,0.7
	c0,0.2-0.1,0.4-0.2,0.5h0.1l-0.1,0.3v0l0,0.2c0,0.1,0,0.1-0.1,0.3l-0.1,0.6h-0.2l0,0c-0.1,0.2-0.1,0.4,0,0.5c0,0.2,0,0.4,0,0.6
	c0,0.1-0.1,0.4-0.2,0.7c-0.1,0.3-0.3,0.8-0.5,1.5c-0.1,0.3-0.1,0.6-0.2,0.8c-0.1,0.2-0.2,0.5-0.2,0.8c0-0.1,0-0.1,0.1-0.3
	c0,0.2-0.1,0.4-0.1,0.5c0,0.1-0.1,0.3-0.2,0.5c-0.1,0.1-0.1,0.3,0,0.4c0,0.1,0,0.2-0.1,0.2v0.1c0,0.3-0.1,0.6-0.2,0.9
	c-0.1,0.3-0.1,0.6-0.2,0.9c0-0.1,0-0.1,0-0.2c0,0-0.1,0-0.1,0.2c0,0.1,0,0.2,0,0.3c0,0.1-0.1,0.2-0.1,0.3l-0.1,0.6
	c-0.1,0.2-0.1,0.4-0.2,0.6c-0.1,0.2-0.2,0.3-0.3,0.4c-0.2,0.1-0.3,0-0.3-0.3c0-0.2,0-0.4,0.1-0.6c0-0.2,0.1-0.4,0.1-0.6l0.1-0.4l0,0
	c0.1,0.2,0.1,0.5,0,0.7c0,0.2-0.1,0.5-0.2,0.7c0.1-0.1,0.2-0.1,0.2-0.2l0-0.3c0-0.1,0.1-0.1,0.1-0.2s0-0.2,0-0.2L81,31
	c0-0.1,0-0.2,0-0.2c0,0,0,0-0.1,0c0,0-0.1,0.1-0.1,0.1c0,0-0.1,0.1-0.1,0.1c0-0.1,0-0.2,0-0.3c0-0.1-0.1-0.2-0.1-0.2
	c-0.1-0.1-0.1,0-0.1,0.1c0,0.1,0,0.2-0.1,0.3c0,0.1-0.1,0.3-0.1,0.4c0,0.1-0.1,0.2-0.1,0.3c0,0-0.1,0-0.1,0V32c0,0,0,0-0.1-0.1
	c0-0.1-0.1-0.2-0.2-0.2s-0.1-0.1-0.2-0.2c-0.1-0.1-0.1-0.2-0.1-0.4c-0.1-0.1-0.1-0.1,0,0.1c0,0.2,0,0.3-0.1,0.4v0.2
	c-0.1,0.1-0.2,0.1-0.3,0c0-0.1-0.1-0.3,0-0.5c0-0.6,0.1-1.2,0.1-1.7c0.1-0.6,0.2-1.1,0.3-1.6c0-0.1,0-0.1,0-0.2c0,0,0-0.1,0-0.2
	c0,0,0-0.1,0-0.2c0-0.1,0-0.3,0-0.4s0-0.2,0-0.2l0.2-0.6l0.2-1.3c0-0.1,0-0.1,0-0.2c0-0.1,0-0.2,0-0.2l0.5-1.7l0,0
	c-0.1-0.2-0.1-0.4-0.1-0.6c0-0.3,0-0.4,0-0.5c0,0,0,0,0,0l0-0.3c0,0,0-0.1,0-0.2c0-0.1,0-0.1-0.1-0.1c0,0,0,0,0,0s-0.1,0.1-0.1,0.2
	c-0.2,0.2-0.4,0.5-0.5,0.7c-0.1,0.2-0.3,0.4-0.6,0.5c0,0.1,0,0.1-0.1,0.2c-0.1,0.1-0.2,0.1-0.3,0.1c0-0.1-0.1,0-0.3,0.1
	c-0.1,0-0.1,0-0.1,0s-0.1,0-0.1,0.1c-0.3,0.3-0.4,0.2-0.5-0.1c-0.1-0.2-0.1-0.4,0.1-0.6v0h-0.2c-0.1,0.1-0.1,0.1-0.2,0
	c0-0.1-0.1-0.1-0.1,0c0,0,0,0,0,0s0,0,0,0c0,0.1,0,0.1,0.2,0.2c0.1,0.1,0.1,0.2,0,0.2L77.5,23l-0.1,0.1c-0.1,0.1-0.2,0.1-0.3,0
	c0,0,0-0.1-0.1-0.2c0-0.1,0-0.1-0.1-0.2c0-0.1-0.1-0.1-0.2-0.2c-0.1,0-0.1-0.1-0.2-0.4c0-0.2,0-0.5,0.1-0.9c0.1-0.4,0.1-0.8,0.2-1.2
	c0.1-0.1,0.1-0.2,0.2-0.4c0-0.2,0.1-0.4,0.2-0.6c0.1-0.2,0.1-0.4,0.1-0.7c0.1,0,0.1-0.1,0.1-0.2c0.1-0.3,0.2-0.6,0.2-0.9
	c0.1-0.3,0.1-0.6,0.3-1l0.1-0.3c0.1-0.1,0.2-0.3,0.2-0.6v-0.2l0.1-0.2v-0.4c0-0.2,0-0.3,0-0.4v-0.3c0.1-0.1,0.2-0.4,0.3-0.9
	c0.1-0.4,0.2-0.7,0.1-0.9c0-0.1,0.1-0.2,0.1-0.3c0.1-0.2,0.2-0.3,0.2-0.4c0,0,0,0,0,0c0,0-0.1,0,0,0c0.1-0.1,0.2-0.2,0.2-0.3
	c0.1-0.1,0.2-0.1,0.2-0.1c0,0,0.1,0.1,0.2,0.3c-0.1,0.2-0.2,0.4-0.1,0.4s0.2,0.1,0.3,0.1c0,0,0,0,0,0h0.2c0.1,0,0.1,0,0.2,0.1
	c0,0.1,0,0.1,0,0.2c0,0.1,0.1,0.2,0.3,0.2c0,0,0-0.1-0.1-0.2c0-0.3,0-0.5,0.2-0.8c0.1-0.1,0.2-0.2,0.4-0.2l0.3-0.1
	c0.1-0.1,0.2,0,0.2,0s0,0.1,0.1,0.2c0,0.3-0.1,0.6-0.3,0.8l0,0c0,0,0,0,0,0l0,0c0,0.1,0,0.3-0.1,0.5s-0.1,0.3,0,0.3
	c0,0.1-0.1,0.3-0.2,0.7c-0.1,0.4-0.2,0.8-0.4,1.3c-0.1,0.5-0.3,0.9-0.4,1.3c-0.1,0.4-0.2,0.6-0.2,0.7C80.1,17.6,80,18,80,18.6
	c-0.1,0.5-0.2,1-0.3,1.3c0,0.1,0,0.2-0.1,0.2c0.1,0,0.1,0.1,0,0.2c0,0.1,0,0.2,0.2,0.3c0,0,0,0,0,0c0,0,0,0,0-0.1
	c0-0.1,0-0.2,0.1-0.3c0.1,0,0.2-0.1,0.3-0.2c0.3-0.3,0.6-0.7,0.8-1.1s0.4-0.8,0.6-1.2l0.2-0.2c0,0,0.1-0.2,0.2-0.6
	c0.1-0.4,0.2-0.7,0.3-1.2c0.1-0.4,0.2-0.8,0.3-1.2s0.1-0.6,0.1-0.6c0-0.1,0-0.2,0.1-0.2c0-0.1,0.1-0.1,0.2-0.2
	c0.1-0.1,0.1-0.2,0.1-0.3c0-0.1,0.1-0.2,0.1-0.2c0.1-0.1,0.2-0.2,0.2-0.4c0-0.2,0.1-0.3,0.2-0.5c0-0.1,0-0.2,0.1-0.2
	c0.1-0.1,0.1-0.1,0.1-0.1c0.1-0.1,0.1-0.1,0.1-0.1s0.1,0,0.1-0.1c0-0.1,0.1-0.1,0.2-0.1c0.1,0,0.1,0,0.2,0c0.1,0,0.2,0,0.2,0
	c0.1,0.1,0.2,0.2,0.3,0.1C85.1,11.6,85.1,11.5,85.2,11.4L85.2,11.4z M78.2,22.1C78.2,22,78.2,22,78.2,22.1c0,0.1-0.1,0.2-0.1,0.2
	l0.1-0.1c0,0,0.1,0,0.1,0v0C78.3,22.3,78.2,22.2,78.2,22.1z M80.7,31L80.7,31l0,0.4c0-0.1,0-0.1,0-0.2C80.7,31.1,80.7,31.1,80.7,31z
	 M81.4,31.6c0.1-0.1,0.1-0.1,0.1-0.1c0-0.1,0-0.2,0-0.3C81.5,31.4,81.5,31.5,81.4,31.6C81.4,31.9,81.4,31.9,81.4,31.6z M82.3,27.4
	L82.3,27.4C82.2,27.4,82.2,27.4,82.3,27.4z M82.2,27.6L82.2,27.6z M82.4,27.2c0,0,0,0.1-0.1,0.1c0.1-0.2,0.1-0.5,0.2-0.7
	c0.1-0.2,0.1-0.3,0.1-0.2c0,0.1-0.1,0.3-0.1,0.4C82.5,27,82.4,27.1,82.4,27.2z"/>
</svg>
